<?xml version="1.0" encoding="UTF-8"?>
<svg id="svg122" width="96" height="96" version="1.1" xmlns="http://www.w3.org/2000/svg" xmlns:cc="http://creativecommons.org/ns#" xmlns:dc="http://purl.org/dc/elements/1.1/" xmlns:rdf="http://www.w3.org/1999/02/22-rdf-syntax-ns#" xmlns:xlink="http://www.w3.org/1999/xlink">
 <metadata id="metadata126">
  <rdf:RDF>
   <cc:Work rdf:about="">
    <dc:format>image/svg+xml</dc:format>
    <dc:type rdf:resource="http://purl.org/dc/dcmitype/StillImage"/>
    <dc:title/>
   </cc:Work>
  </rdf:RDF>
 </metadata>
 <defs id="defs52">
  <linearGradient id="linearGradient4219" x1="46.811" x2="79.899" y1="74.62" y2="51.805" gradientTransform="translate(-6.6071 -2.6247)" gradientUnits="userSpaceOnUse">
   <stop id="stop4215" offset="0"/>
   <stop id="stop4217" stop-opacity="0" offset="1"/>
  </linearGradient>
  <linearGradient id="linearGradient4263" x1="163.86" x2="106.39" y1="21.589" y2="167.4" gradientTransform="matrix(.29837 0 0 .29685 16.672 7.04)" gradientUnits="userSpaceOnUse">
   <stop id="stop4234" stop-color="#5d5d5d" offset="0"/>
   <stop id="stop4236" stop-color="#212121" offset="1"/>
  </linearGradient>
 </defs>
 <path id="path4205" d="m81.58 41.538c0.13307 1.4739-3.1319-2.9986-3.1319-2.9986l-9.3234 9.6265-9.0095-4.2673-1.1787 10.783-0.11265 0.17029 0.01149-0.0886-3.486 1.7703-2.4136 1.0647-2.1394 0.58713-2.2567 0.35974-2.222-0.01236-1.1717-0.24826-0.24142 0.19756-0.50674 0.64187-0.73374 1.1578-1.1245 1.9835-0.74265 1.5445-0.79751 2.2921-0.32972 1.0031 0.09333 0.47413 1.3972 1.0897-1.9188 0.54512-0.28818 0.29368-0.26966 1.2266-0.09666 1.3694c-0.08808 1.7308 2.5517 0.31684 2.5517 0.31684s0.02561-0.15155-0.44746 0.41438l-0.17573-0.20386 1.3101-0.29527 0.35448 0.98142-1.0401-0.69323 1.6054 0.24941c0.97781 0.71244 0.43518 2.5226 2.132 1.7224l1.4448-0.64015 3.1732-0.74432 1.5788-1.0837 2.9982-2.2565 2.409-1.8585 1.2575-0.99793 0.05504 0.04478 0.14304-0.1264c5.645-3.7206 14.238-7.2455 18.453-11.718 0.6116-0.64901-3.8364-4.1046-3.1869-4.6597l7.6242-6.9133z" fill="url(#linearGradient4219)" opacity=".5"/>
 <path id="path4337" d="m63.854 13.381c-0.1527-0.0078-0.3058-0.0056-0.45898 0.0059-1.4702 0.1098-2.8242 1.0534-3.7305 2.4941a2.0002 2.0002 0 0 0-0.07227 0.12305l-2.9746 5.5781a2.0002 2.0002 0 0 0-0.05664 0.11719l-2.5566 5.6504-3.125 6.1699a2.0002 2.0002 0 0 0-0.05664 0.12109l-1.3965 3.2754-0.57422-0.24024-3.4727-1.4883a2.0002 2.0002 0 0 0-0.78906-0.16211h-0.85156a2.0002 2.0002 0 0 0-0.53906 0.07422l-0.72656 0.20312a2.0002 2.0002 0 0 0-1.0488 0.71094l-1.1719 1.5312a2.0002 2.0002 0 0 0-0.0039 0.0039l-3.3984 4.4648a2.0002 2.0002 0 0 0-0.18164 0.28906l-3.4492 3.9141-2.6855 2.5977-2.957 1.9746-3.6348 1.9043-4.2129 1.5586-2.666 0.61719a2.0002 2.0002 0 0 0-1.4453 1.3145l-0.12109 0.36133a2.0002 2.0002 0 0 0-0.0762 0.96094l0.16016 0.9668a2.0002 2.0002 0 0 0 0.11718 0.42188l0.64844 1.6094a2.0002 2.0002 0 0 0 0.0781 0.16992l1.375 2.6582a2.0002 2.0002 0 0 0 0.12109 0.20508l1.3359 1.9707a2.0002 2.0002 0 0 0 0.21289 0.26172l2.5898 2.6973a2.0002 2.0002 0 0 0 0.0332 0.0332l1.1719 1.166a2.0002 2.0002 0 0 0 0.7539 0.47071l1.0508 0.36523a2.0002 2.0002 0 0 0 0.58203 0.10938l-0.0176 0.21484a2.0002 2.0002 0 0 0 0.76367 1.7363l1.6992 1.3262a2.0002 2.0002 0 0 0 0.23242 0.15625l2.3047 1.3281a2.0002 2.0002 0 0 0 0.0273 0.01758c1.1495 0.6375 2.3176 0.74986 3.3867 0.61914a2.0002 2.0002 0 0 0 1.8945 1.3652h2.832a2.0002 2.0002 0 0 0 0.31641-0.02539l1.4961-0.24023a2.0002 2.0002 0 0 0 0.19141-0.04102 2.0002 2.0002 0 0 0 0.59961 0.10352l3.0781 0.03906a2.0002 2.0002 0 0 0 0.07227 0c3.9941-0.09356 6.7066-2.4691 8.7148-4.5566a2.0002 2.0002 0 0 0 0.08008-0.08984l2.0234-2.375a2.0002 2.0002 0 0 0 0.14453-0.18945l1.5781-2.375a2.0002 2.0002 0 0 0 0.09375-0.1582l1.1719-2.1719a2.0002 2.0002 0 0 0 0.07617-0.1543l1.8633-4.3066a2.0002 2.0002 0 0 0 0.01953-0.04687l1.4141-3.502a2.0002 2.0002 0 0 0 0.01953-0.05273l0.20312-0.54883h-1.1992a2.0002 2.0002 0 0 0 1.9414-1.5234l0.05469-0.22266a2.0002 2.0002 0 0 0 0.0332-0.1543l0.74219-4.5547 0.60938-3.6797a2.0002 2.0002 0 0 0 0.02148-0.17188l0.06055-0.78711a2.0002 2.0002 0 0 0-0.23438-1.1035l-0.44531-0.82617a2.0002 2.0002 0 0 0-0.92969-0.87109l-2.9961-1.3672a2.0002 2.0002 0 0 0-0.04297-0.01758l-1.1523-0.49415 1.2148-2.998 1.5957-3.8652a2.0002 2.0002 0 0 0 0.01953-0.04883l1.9922-5.207 1.5352-3.6758a2.0002 2.0002 0 0 0 0.01172-0.03125l1.3145-3.2988a2.0002 2.0002 0 0 0 0.03711-0.09961l1.0801-3.1973a2.0002 2.0002 0 0 0 0.03516-0.11719c0.3376-1.2467 0.12839-2.5958-0.61914-3.5684-0.65409-0.85103-1.687-1.3675-2.7559-1.4219zm-0.31055 2c1.2022-0.08978 2.1599 0.97414 1.7559 2.4668l-1.0801 3.1973-1.3145 3.2988-1.5469 3.7051-2.002 5.2344-1.5996 3.8711-1.7773 4.3848-0.14258 0.22656 0.12109 0.05273 1.0625 0.67969 1.7383 0.74414 2.9961 1.3672 0.44531 0.82617-0.06055 0.78711-0.60938 3.6816-0.74414 4.5566-0.05469 0.22266h-0.19141l-0.6875 1.8535-1.4141 3.502-1.8633 4.3066-1.1719 2.1719-1.5781 2.375-2.0234 2.375c-1.9241 2-4.0713 3.8672-7.3203 3.9434l-3.0781-0.03906 0.56641-0.88477-1.6992 0.84766-1.4961 0.24024h-2.832c-0.08879-0.87202 1.3555-3.3477 1.3555-3.3477s-2.6852 3.2664-5.666 1.6133l-2.3047-1.3281-1.6992-1.3262 0.0391-0.48438 2.832-1.9316-4.7734 0.04297-1.0508-0.36523-1.1719-1.166-2.5898-2.6973-1.3359-1.9707-1.375-2.6582-0.64844-1.6094-0.16015-0.9668 0.12109-0.36133 2.7891-0.64648 4.4531-1.6465 3.8438-2.0137 3.1953-2.1348 2.8711-2.7773 3.7227-4.2246 0.13867 0.08984-0.08594-0.24024 3.3984-4.4648 1.1719-1.5312 0.72656-0.20312h0.85156l3.4805 1.4922 2.416 1.0117 2.1758-5.1055 3.1465-6.209 2.5742-5.6914 2.9746-5.5781c0.65517-1.0416 1.4643-1.5106 2.1855-1.5645z" color="#000000" color-rendering="auto" image-rendering="auto" opacity=".1" shape-rendering="auto" solid-color="#000000" style="isolation:auto;mix-blend-mode:normal;text-decoration-color:#000000;text-decoration-line:none;text-decoration-style:solid;text-indent:0;text-transform:none;white-space:normal"/>
 <path id="path4356" d="m63.469 14.383c-1.0958 0.08184-2.1763 0.78812-2.957 2.0293l-0.01953 0.03125-3.0078 5.6387-2.5781 5.7012-3.1504 6.2188-1.8008 4.2207-1.4941-0.625-3.666-1.5723h-1.1934l-1.1816 0.33008-1.375 1.7969-3.7285 4.8984 0.0078 0.01953-3.3828 3.8379-2.7773 2.6875-3.0762 2.0547-3.7383 1.959-4.334 1.6035-3.2715 0.75781-0.37891 1.127 0.21875 1.3203 0.70703 1.7559 1.4238 2.752 1.418 2.0898 2.6562 2.7676 1.3418 1.334 1.4297 0.49805 1.6523-0.01563-0.50586 0.3457-0.12109 1.498 2.1797 1.7012 2.373 1.3672 8e-3 0.0039c1.433 0.79471 2.792 0.56729 3.9395 0.13672-0.06978 0.256-0.17283 0.48886-0.13867 0.82422l0.08987 0.89845h3.8164l1.3594-0.21875 4.2734 0.05469h0.01758c3.6216-0.08484 6.0514-2.2062 8.0176-4.25l0.02148-0.02148 2.082-2.4434 1.6348-2.4629 1.2148-2.25 1.8848-4.3574 1.4238-3.5273 0.45117-1.2148h0.2793l0.25195-1.0234 0.75-4.5938 0.61719-3.7227 0.08594-1.125-0.74414-1.3789-3.3125-1.5117-1.6738-0.7168-0.36523-0.23438 1.5586-3.8438 1.6035-3.8809 2-5.2324 1.5449-3.6992 1.3281-3.3301 1.0977-3.252 0.0078-0.0293c0.26977-0.99653 0.0961-1.9903-0.44727-2.6973-0.54311-0.70701-1.4344-1.0975-2.3477-1.0293zm0.07422 0.99805c1.2022-0.08978 2.1599 0.97414 1.7559 2.4668l-1.0801 3.1973-1.3145 3.2988-1.5469 3.7051-2.002 5.2344-1.5996 3.8711-1.7773 4.3848-0.14258 0.22656 0.12109 0.05273 1.0625 0.67969 1.7383 0.74414 2.9961 1.3672 0.44531 0.82617-0.06055 0.78711-0.60938 3.6816-0.74414 4.5566-0.05469 0.22266h-0.19141l-0.6875 1.8535-1.4141 3.502-1.8633 4.3066-1.1719 2.1719-1.5781 2.375-2.0234 2.375c-1.9241 2-4.0713 3.8672-7.3203 3.9434l-3.0781-0.03906 0.56641-0.88477-1.6992 0.84766-1.4961 0.24024h-2.832c-0.08879-0.87202 1.3555-3.3477 1.3555-3.3477s-2.6852 3.2664-5.666 1.6133l-2.3047-1.3281-1.6992-1.3262 0.0391-0.48438 2.832-1.9316-4.7734 0.04297-1.0508-0.36523-1.1719-1.166-2.5898-2.6973-1.3359-1.9707-1.375-2.6582-0.64844-1.6094-0.16015-0.9668 0.12109-0.36133 2.7891-0.64648 4.4531-1.6465 3.8438-2.0137 3.1953-2.1348 2.8711-2.7773 3.7227-4.2246 0.13867 0.08984-0.08594-0.24024 3.3984-4.4648 1.1719-1.5312 0.72656-0.20312h0.85156l3.4805 1.4922 2.416 1.0117 2.1758-5.1055 3.1465-6.209 2.5742-5.6914 2.9746-5.5781c0.65517-1.0416 1.4643-1.5106 2.1855-1.5645z" color="#000000" color-rendering="auto" image-rendering="auto" opacity=".15" shape-rendering="auto" solid-color="#000000" style="isolation:auto;mix-blend-mode:normal;text-decoration-color:#000000;text-decoration-line:none;text-decoration-style:solid;text-indent:0;text-transform:none;white-space:normal"/>
 <path id="path4343" d="m63.543 16.381c-0.72129 0.05387-1.5304 0.52284-2.1855 1.5645l-2.9746 5.5781-2.5742 5.6914-3.1465 6.209-2.1758 5.1055-2.416-1.0117-3.4805-1.4922h-0.85156l-0.72656 0.20312-1.1719 1.5312-3.3984 4.4648 0.08594 0.24024-0.13867-0.08984-3.7227 4.2246-2.8711 2.7773-3.1953 2.1348-3.8438 2.0137-4.4531 1.6465-2.7891 0.64648-0.1211 0.36133 0.16016 0.9668 0.64844 1.6094 1.375 2.6582 1.3359 1.9707 2.5898 2.6973 1.1719 1.166 1.0508 0.36523 4.7734-0.04297-2.832 1.9316-0.0391 0.48438 1.6992 1.3262 2.3047 1.3281c2.9809 1.6532 5.666-1.6133 5.666-1.6133s-1.4443 2.4756-1.3555 3.3477h2.832l1.4961-0.24023 1.6992-0.84766-0.56641 0.88477 3.0781 0.03906c3.2491-0.07612 5.3963-1.9434 7.3203-3.9434l2.0234-2.375 1.5781-2.375 1.1719-2.1719 1.8633-4.3066 1.4141-3.502 0.6875-1.8535h0.19141l0.05469-0.22266 0.74414-4.5566 0.60938-3.6816 0.06055-0.78711-0.44531-0.82617-2.9961-1.3672-1.7383-0.74414-1.0625-0.67969-0.12109-0.05273 0.14258-0.22656 1.7773-4.3848 1.5996-3.8711 2.002-5.2344 1.5469-3.7051 1.3145-3.2988 1.0801-3.1973c0.40408-1.4927-0.5537-2.5566-1.7559-2.4668z" opacity=".3"/>
 <path id="path4425" d="m38.389 43.375-3.7228 4.2243-2.871 2.7789-3.1953 2.1336-3.8438 2.0132-4.4535 1.6475-2.7888 0.64526-0.12107 0.36134 0.15999 0.96788 0.64856 1.6088 1.375 2.6584 1.336 1.9702 2.5899 2.6972 1.1717 1.1658 1.0507 0.36564 4.7734-0.04301-2.8321 1.9315-0.0389 0.48609 1.6992 1.3249 2.3046 1.3292c2.9809 1.6532 5.6652-1.6142 5.6652-1.6142s-1.4432 2.4757-1.3544 3.3478h2.8321l1.496-0.2409 1.6992-0.84743-0.56642 0.88615 3.0785 0.03872c3.2491-0.07612 5.3961-1.9446 7.3201-3.9447l2.0235-2.3745 1.5782-2.3745 1.1717-2.1724 1.8635-4.306 1.4139-3.5016 0.85178-2.2971-7.4844-1.2475-0.24646 0.27961 0.14268-0.27961-6.2306-4.2673-3.2385-2.0132-2.9531-1.8497z" fill="#e6e6e6"/>
 <path id="path4429" d="m61.357 16.945-2.9748 5.5793-2.5726 5.6911-3.1477 6.2073-2.1749 5.1061-2.417-1.0109-3.4806-1.4927h-0.85178l-0.72639 0.20219-1.1717 1.5314-3.3985 4.4652 0.15999 0.44307 0.3632 0.52481 2.5078 1.4884 3.1564 1.9315c3.8068 2.3073 6.0192 5.3231 10.127 6.4805l5.1144 0.59165h0.86043l0.05621-0.22369 0.74369-4.5555 0.60965-3.6822 0.06052-0.78721-0.44535-0.82592-2.9964-1.3679-1.7382-0.74419-1.0636-0.67966-0.12107-0.05163 0.14268-0.22799 1.7771-4.3834 1.5998-3.8715 2.0019-5.2352 1.5479-3.7038 1.3144-3.2994 1.0797-3.1973c0.64652-2.3883-2.1948-3.68-3.942-0.9024z" fill="url(#linearGradient4263)"/>
 <path id="path4204" d="m58.758 43.243s-3.5724 7.1656-3.9727 10.613c-4.7608 10.647-12.816 20.432-12.816 20.432l-0.56641 0.88477 3.0781 0.03906c0.04145-9.72e-4 0.07805-0.01017 0.11914-0.01172l-2.207-0.02734 0.56641-0.88477s8.0556-9.7848 12.816-20.432c0.36869-3.1754 3.314-9.2623 3.7949-10.242z" opacity=".05"/>
</svg>
