<?xml version="1.0" encoding="UTF-8" standalone="no"?>
<svg
   xmlns:dc="http://purl.org/dc/elements/1.1/"
   xmlns:cc="http://creativecommons.org/ns#"
   xmlns:rdf="http://www.w3.org/1999/02/22-rdf-syntax-ns#"
   xmlns:svg="http://www.w3.org/2000/svg"
   xmlns="http://www.w3.org/2000/svg"
   xmlns:xlink="http://www.w3.org/1999/xlink"
   xmlns:sodipodi="http://sodipodi.sourceforge.net/DTD/sodipodi-0.dtd"
   xmlns:inkscape="http://www.inkscape.org/namespaces/inkscape"
   id="svg122"
   version="1.1"
   width="96"
   height="96"
   sodipodi:docname="ucaresystem-symbolic.svg"
   inkscape:version="0.92.3 (2405546, 2018-03-11)">
  <sodipodi:namedview
     pagecolor="#ffffff"
     bordercolor="#666666"
     borderopacity="1"
     objecttolerance="10"
     gridtolerance="10"
     guidetolerance="10"
     inkscape:pageopacity="0"
     inkscape:pageshadow="2"
     inkscape:window-width="1511"
     inkscape:window-height="955"
     id="namedview93"
     showgrid="false"
     inkscape:zoom="6.9532167"
     inkscape:cx="80.414213"
     inkscape:cy="37.633708"
     inkscape:window-x="0"
     inkscape:window-y="0"
     inkscape:window-maximized="0"
     inkscape:current-layer="svg122" />
  <metadata
     id="metadata126">
    <rdf:RDF>
      <cc:Work
         rdf:about="">
        <dc:format>image/svg+xml</dc:format>
        <dc:type
           rdf:resource="http://purl.org/dc/dcmitype/StillImage" />
        <dc:title></dc:title>
      </cc:Work>
    </rdf:RDF>
  </metadata>
  <defs
     id="defs52">
    <linearGradient
       stop-color="#fff"
       id="c">
      <stop
         id="stop2"
         offset="0" />
      <stop
         id="stop4"
         offset="1"
         stop-opacity="0" />
    </linearGradient>
    <filter
       x="-.192"
       y="-.192"
       color-interpolation-filters="sRGB"
       width="1.384"
       height="1.384"
       id="g">
      <feGaussianBlur
         id="feGaussianBlur7"
         stdDeviation="5.28" />
    </filter>
    <linearGradient
       x1="48"
       y1="20.221"
       x2="48"
       gradientUnits="userSpaceOnUse"
       xlink:href="#c"
       y2="138.66"
       id="r" />
    <clipPath
       id="f">
      <rect
         id="rect11"
         fill="#fff"
         x="6"
         y="6"
         width="84"
         height="84"
         ry="6"
         rx="6" />
    </clipPath>
    <clipPath
       id="d">
      <rect
         id="rect14"
         fill="url(#h)"
         x="6"
         y="6"
         width="84"
         height="84"
         ry="6"
         rx="6" />
    </clipPath>
    <linearGradient
       x1="48"
       y1="90"
       x2="48"
       gradientUnits="userSpaceOnUse"
       y2="5.9877"
       id="h">
      <stop
         id="stop17"
         offset="0"
         stop-color="#70a83e" />
      <stop
         id="stop19"
         offset="1"
         stop-color="#9fd058" />
    </linearGradient>
    <linearGradient
       x1="45.448"
       y1="92.54"
       gradientTransform="matrix(1 0 0 1 100 0)"
       x2="45.448"
       gradientUnits="userSpaceOnUse"
       y2="7.0165"
       id="b">
      <stop
         id="stop22"
         offset="0" />
      <stop
         id="stop24"
         offset="1"
         stop-opacity=".58824" />
    </linearGradient>
    <linearGradient
       x1="86.133"
       y1="105.1"
       gradientTransform="matrix(.41503 0 0 .41503 21.438 20.853)"
       x2="84.639"
       gradientUnits="userSpaceOnUse"
       y2="20.895"
       id="q">
      <stop
         id="stop27"
         offset="0"
         stop-color="#e5e5e5" />
      <stop
         id="stop29"
         offset="1"
         stop-color="#ababab" />
    </linearGradient>
    <linearGradient
       x1="20.759"
       y1="1"
       gradientTransform="matrix(1.2791,0,0,1.2791,17.302,17.582)"
       x2="20.759"
       gradientUnits="userSpaceOnUse"
       y2="45.017"
       id="p">
      <stop
         id="stop32"
         offset="0"
         stop-color="#f6f6f6" />
      <stop
         id="stop34"
         offset="1"
         stop-color="#d2d2d2" />
    </linearGradient>
    <linearGradient
       x1="37.201"
       y1="1"
       gradientTransform="matrix(1.2791,0,0,1.2791,17.302,17.582)"
       x2="37.201"
       gradientUnits="userSpaceOnUse"
       y2="45"
       id="o">
      <stop
         id="stop37"
         offset="0"
         stop-color="#aaa" />
      <stop
         id="stop39"
         offset="1"
         stop-color="#8c8c8c" />
    </linearGradient>
    <radialGradient
       r="42"
       gradientTransform="matrix(1.1573 0 0 .99591 -7.551 .19713)"
       cx="48"
       cy="90.172"
       gradientUnits="userSpaceOnUse"
       xlink:href="#c"
       id="e" />
    <linearGradient
       x1="36.357"
       y1="6"
       x2="36.357"
       gradientUnits="userSpaceOnUse"
       xlink:href="#c"
       y2="63.893"
       id="n" />
    <linearGradient
       x1="48"
       y1="6"
       x2="48"
       gradientUnits="userSpaceOnUse"
       y2="90"
       id="m">
      <stop
         id="stop44"
         offset="0"
         stop-color="#80a2c8" />
      <stop
         id="stop46"
         offset="1"
         stop-color="#2e4c6d" />
    </linearGradient>
    <linearGradient
       x1="32.251"
       y1="90"
       gradientTransform="translate(0,1)"
       x2="32.251"
       gradientUnits="userSpaceOnUse"
       xlink:href="#b"
       y2="6"
       id="k" />
    <linearGradient
       x1="32.251"
       y1="90"
       gradientTransform="matrix(1.0238 0 0 1.0119 -1.1429 .929)"
       x2="32.251"
       gradientUnits="userSpaceOnUse"
       xlink:href="#b"
       y2="5.9996"
       id="j" />
    <linearGradient
       x1="32.251"
       y1="6.1317"
       gradientTransform="matrix(1.0238,0,0,-1.0119,-1.1429,98.071)"
       x2="32.251"
       gradientUnits="userSpaceOnUse"
       xlink:href="#b"
       y2="90.239"
       id="i" />
    <linearGradient
       gradientUnits="userSpaceOnUse"
       y2="51.804909"
       x2="79.899368"
       y1="74.620186"
       x1="46.810825"
       id="linearGradient4219"
       xlink:href="#linearGradient4213"
       gradientTransform="translate(-6.6070979,-2.6246789)" />
    <linearGradient
       id="linearGradient4213">
      <stop
         id="stop4215"
         offset="0"
         style="stop-color:#000000;stop-opacity:1;" />
      <stop
         id="stop4217"
         offset="1"
         style="stop-color:#000000;stop-opacity:0;" />
    </linearGradient>
    <linearGradient
       y2="159.17"
       x2="110.94"
       y1="169.5625"
       x1="60.486027"
       gradientTransform="matrix(0.29837204,0,0,0.29684839,16.501162,6.5847281)"
       gradientUnits="userSpaceOnUse"
       id="linearGradient4257"
       xlink:href="#linearGradient4295" />
    <linearGradient
       id="linearGradient4295">
      <stop
         style="stop-color:#ffb87d;stop-opacity:1"
         id="stop4299"
         stop-color="#ffd287"
         stop-opacity=".71765"
         offset="0" />
      <stop
         id="stop4301"
         stop-color="#ffcb8b"
         offset="1" />
    </linearGradient>
    <linearGradient
       y2="167.39952"
       x2="106.38776"
       y1="21.589359"
       x1="163.86353"
       gradientTransform="matrix(0.29837204,0,0,0.29684839,16.671622,7.0399781)"
       gradientUnits="userSpaceOnUse"
       id="linearGradient4263"
       xlink:href="#linearGradient4232" />
    <linearGradient
       id="linearGradient4232">
      <stop
         id="stop4234"
         style="stop-color:#5d5d5d;stop-opacity:1"
         offset="0" />
      <stop
         id="stop4236"
         style="stop-color:#212121;stop-opacity:1"
         offset="1" />
    </linearGradient>
    <linearGradient
       gradientUnits="userSpaceOnUse"
       y2="56.861904"
       x2="54.77459"
       y1="6.1759281"
       x1="69.057976"
       id="linearGradient4251"
       xlink:href="#c"
       gradientTransform="translate(-6.6070979,-2.6246789)" />
    <linearGradient
       gradientUnits="userSpaceOnUse"
       y2="66.585457"
       x2="64.34137"
       y1="63.78336"
       x1="58.472698"
       id="linearGradient4199"
       xlink:href="#linearGradient4209"
       gradientTransform="translate(-6.6070979,-2.6246789)" />
    <linearGradient
       id="linearGradient4209">
      <stop
         id="stop4211"
         style="stop-color:#000000;stop-opacity:1"
         offset="0" />
      <stop
         id="stop4213"
         style="stop-color:#ffffff;stop-opacity:0"
         offset="1" />
    </linearGradient>
  </defs>
  <g
     style="fill:#00ac00;fill-opacity:1"
     id="g4326"
     transform="matrix(2.2137709,0,0,2.2024662,-9.0169779,-7.5229489)" />
  <path
     id="path4205"
     d="m 81.580273,41.53754 c 0.133069,1.473861 -3.131902,-2.998554 -3.131902,-2.998554 l -9.323441,9.626512 -9.009547,-4.267341 -1.178662,10.783422 -0.112651,0.170288 0.01149,-0.0886 -3.48602,1.770265 -2.413629,1.064687 -2.139449,0.587127 -2.256675,0.35974 -2.221953,-0.01236 -1.171661,-0.248261 -0.241424,0.197563 -0.506739,0.64187 -0.733743,1.157807 -1.124512,1.983457 -0.742648,1.544517 -0.79751,2.292053 -0.329722,1.003079 0.09333,0.474131 1.397208,1.089744 -1.918844,0.545122 -0.288185,0.293677 -0.269656,1.226559 -0.09666,1.369412 c -0.08808,1.73079 2.551744,0.316836 2.551744,0.316836 0,0 0.02561,-0.151551 -0.447456,0.414376 l -0.175728,-0.203864 1.310148,-0.295266 0.354483,0.981419 -1.040051,-0.693231 1.605377,0.249409 c 0.977814,0.712435 0.435181,2.522618 2.132017,1.722376 l 1.444779,-0.640153 3.173162,-0.744321 1.578813,-1.083652 2.998246,-2.256497 2.408965,-1.858518 1.257496,-0.99793 0.05504,0.04478 0.143035,-0.126404 c 5.644984,-3.720567 14.238397,-7.245521 18.453398,-11.718323 0.611599,-0.649006 -3.83641,-4.104572 -3.18689,-4.659728 l 7.624215,-6.913268 z"
     style="opacity:0.5;fill:url(#linearGradient4219);fill-opacity:1;stroke:none;stroke-width:0.13478px;stroke-opacity:0.88889005" />
  <path
     style="color:#000000;font-style:normal;font-variant:normal;font-weight:normal;font-stretch:normal;font-size:medium;line-height:normal;font-family:sans-serif;text-indent:0;text-align:start;text-decoration:none;text-decoration-line:none;text-decoration-style:solid;text-decoration-color:#000000;letter-spacing:normal;word-spacing:normal;text-transform:none;writing-mode:lr-tb;direction:ltr;baseline-shift:baseline;text-anchor:start;white-space:normal;clip-rule:nonzero;display:inline;overflow:visible;visibility:visible;opacity:0.1;isolation:auto;mix-blend-mode:normal;color-interpolation:sRGB;color-interpolation-filters:linearRGB;solid-color:#000000;solid-opacity:1;fill:#000000;fill-opacity:1;fill-rule:nonzero;stroke:none;stroke-width:4;stroke-linecap:round;stroke-linejoin:round;stroke-miterlimit:4;stroke-dasharray:none;stroke-dashoffset:0;stroke-opacity:1;color-rendering:auto;image-rendering:auto;shape-rendering:auto;text-rendering:auto;enable-background:accumulate"
     d="m 63.853837,13.381181 c -0.152702,-0.0078 -0.305795,-0.0056 -0.458985,0.0059 -1.470232,0.109797 -2.824239,1.053394 -3.730469,2.49414 a 2.0002,2.0002 0 0 0 -0.07227,0.123047 l -2.97461,5.578125 a 2.0002,2.0002 0 0 0 -0.05664,0.117188 l -2.556641,5.650389 -3.125,6.169922 a 2.0002,2.0002 0 0 0 -0.05664,0.121094 l -1.39648,3.275351 -0.574219,-0.240235 -3.472656,-1.488281 a 2.0002,2.0002 0 0 0 -0.789062,-0.162109 h -0.851563 a 2.0002,2.0002 0 0 0 -0.539062,0.07422 l -0.726563,0.203125 a 2.0002,2.0002 0 0 0 -1.048828,0.710938 l -1.171875,1.53125 a 2.0002,2.0002 0 0 0 -0.0039,0.0039 l -3.398438,4.464844 a 2.0002,2.0002 0 0 0 -0.18164,0.289062 l -3.449219,3.914063 -2.685545,2.597656 -2.95703,1.974609 -3.63477,1.904297 -4.21289,1.558594 -2.66601,0.617188 a 2.0002,2.0002 0 0 0 -1.44532,1.314453 l -0.12109,0.361328 a 2.0002,2.0002 0 0 0 -0.0762,0.960937 l 0.16016,0.966797 a 2.0002,2.0002 0 0 0 0.11718,0.421875 l 0.64844,1.609375 a 2.0002,2.0002 0 0 0 0.0781,0.169922 l 1.375,2.658203 a 2.0002,2.0002 0 0 0 0.12109,0.205078 l 1.33594,1.970703 a 2.0002,2.0002 0 0 0 0.21289,0.261719 l 2.58985,2.697266 a 2.0002,2.0002 0 0 0 0.0332,0.0332 l 1.17187,1.166016 a 2.0002,2.0002 0 0 0 0.7539,0.47071 l 1.05078,0.365234 a 2.0002,2.0002 0 0 0 0.58203,0.109375 l -0.0176,0.214844 a 2.0002,2.0002 0 0 0 0.76367,1.736328 l 1.69922,1.326172 a 2.0002,2.0002 0 0 0 0.23242,0.15625 l 2.30469,1.328125 a 2.0002,2.0002 0 0 0 0.0273,0.01758 c 1.14948,0.637499 2.31756,0.749864 3.386718,0.619141 a 2.0002,2.0002 0 0 0 1.894537,1.365232 h 2.832031 a 2.0002,2.0002 0 0 0 0.316407,-0.02539 l 1.496093,-0.240234 a 2.0002,2.0002 0 0 0 0.191407,-0.04102 2.0002,2.0002 0 0 0 0.599609,0.103516 l 3.078125,0.03906 a 2.0002,2.0002 0 0 0 0.07227,0 c 3.994065,-0.09356 6.706566,-2.469095 8.714843,-4.556641 a 2.0002,2.0002 0 0 0 0.08008,-0.08984 l 2.023437,-2.375 a 2.0002,2.0002 0 0 0 0.144526,-0.189451 l 1.578125,-2.375 a 2.0002,2.0002 0 0 0 0.09375,-0.158203 l 1.171875,-2.171875 a 2.0002,2.0002 0 0 0 0.07617,-0.154297 l 1.863281,-4.306641 a 2.0002,2.0002 0 0 0 0.01953,-0.04687 l 1.414062,-3.501953 a 2.0002,2.0002 0 0 0 0.01953,-0.05273 l 0.203125,-0.548828 h -1.199218 a 2.0002,2.0002 0 0 0 1.941406,-1.523438 l 0.05469,-0.222656 a 2.0002,2.0002 0 0 0 0.0332,-0.154297 l 0.742187,-4.554687 0.609375,-3.679688 a 2.0002,2.0002 0 0 0 0.02148,-0.171875 l 0.06055,-0.787109 a 2.0002,2.0002 0 0 0 -0.234375,-1.103516 l -0.445312,-0.826172 a 2.0002,2.0002 0 0 0 -0.929688,-0.871094 l -2.996094,-1.367187 a 2.0002,2.0002 0 0 0 -0.04297,-0.01758 l -1.152335,-0.494148 1.214844,-2.998047 1.595703,-3.865234 a 2.0002,2.0002 0 0 0 0.01953,-0.04883 l 1.992188,-5.207031 1.535156,-3.675782 a 2.0002,2.0002 0 0 0 0.01172,-0.03125 l 1.314453,-3.298827 a 2.0002,2.0002 0 0 0 0.03711,-0.09961 L 67.193561,18.4886 a 2.0002,2.0002 0 0 0 0.03516,-0.117187 c 0.3376,-1.246667 0.12839,-2.595751 -0.619141,-3.56836 -0.654089,-0.851032 -1.686951,-1.367501 -2.755859,-1.421875 z m -0.310547,2 c 1.202155,-0.08978 2.159937,0.974137 1.755859,2.466797 l -1.080078,3.197266 -1.314453,3.298827 -1.546875,3.705078 -2.001953,5.234375 -1.59961,3.871094 -1.777343,4.384765 -0.142579,0.226563 0.121094,0.05273 1.0625,0.679688 1.738281,0.744141 2.996094,1.367187 0.445313,0.826172 -0.06055,0.787109 -0.609375,3.681641 -0.744141,4.556641 -0.05469,0.222656 h -0.191407 l -0.6875,1.853515 -1.414062,3.501953 -1.863281,4.306641 -1.171875,2.171875 -1.578125,2.375 -2.023438,2.375 c -1.924059,2.000002 -4.071258,3.867241 -7.320312,3.94336 l -3.078125,-0.03906 0.566406,-0.884766 -1.699219,0.847657 -1.496088,0.240235 h -2.832031 c -0.08879,-0.872022 1.355469,-3.347656 1.355469,-3.347656 0,0 -2.685156,3.26645 -5.666014,1.613281 l -2.30469,-1.328125 -1.69922,-1.326172 0.0391,-0.484375 2.83203,-1.931641 -4.77343,0.04297 -1.05079,-0.365234 -1.17187,-1.166016 -2.58984,-2.697265 -1.33594,-1.970704 -1.375,-2.658203 -0.64844,-1.609376 -0.16015,-0.966796 0.12109,-0.361329 2.78906,-0.646484 4.45313,-1.646484 3.84375,-2.013672 3.19531,-2.134766 2.871095,-2.777344 3.722656,-4.224609 0.138672,0.08984 -0.08594,-0.240235 3.398438,-4.464843 1.171875,-1.53125 0.726562,-0.203125 h 0.851563 l 3.480468,1.492187 2.416016,1.011719 2.175781,-5.105469 3.146485,-6.208984 2.574218,-5.691405 2.97461,-5.578126 c 0.655174,-1.041615 1.464253,-1.510586 2.185547,-1.564453 z"
     id="path4337" />
  <path
     style="color:#000000;font-style:normal;font-variant:normal;font-weight:normal;font-stretch:normal;font-size:medium;line-height:normal;font-family:sans-serif;text-indent:0;text-align:start;text-decoration:none;text-decoration-line:none;text-decoration-style:solid;text-decoration-color:#000000;letter-spacing:normal;word-spacing:normal;text-transform:none;writing-mode:lr-tb;direction:ltr;baseline-shift:baseline;text-anchor:start;white-space:normal;clip-rule:nonzero;display:inline;overflow:visible;visibility:visible;opacity:0.15;isolation:auto;mix-blend-mode:normal;color-interpolation:sRGB;color-interpolation-filters:linearRGB;solid-color:#000000;solid-opacity:1;fill:#000000;fill-opacity:1;fill-rule:nonzero;stroke:none;stroke-width:2;stroke-linecap:butt;stroke-linejoin:miter;stroke-miterlimit:4;stroke-dasharray:none;stroke-dashoffset:0;stroke-opacity:1;color-rendering:auto;image-rendering:auto;shape-rendering:auto;text-rendering:auto;enable-background:accumulate"
     d="m 63.469071,14.383134 c -1.095757,0.08184 -2.17633,0.788115 -2.957031,2.029297 l -0.01953,0.03125 -3.007812,5.638672 -2.578125,5.701171 -3.150391,6.21875 -1.800781,4.220703 -1.494141,-0.625 -3.666015,-1.572265 h -1.19336 l -1.18164,0.330078 -1.375,1.796875 -3.728516,4.898437 0.0078,0.01953 -3.382813,3.837891 -2.777344,2.6875 -3.07617,2.054688 -3.73828,1.958984 -4.33399,1.603516 -3.27148,0.757812 -0.37891,1.126953 0.21875,1.320313 0.70703,1.755859 1.42383,2.751953 1.41797,2.089844 2.65625,2.767578 1.3418,1.333985 1.42969,0.498046 1.65234,-0.01563 -0.50586,0.345703 -0.12109,1.498047 2.17968,1.701172 2.37305,1.367188 0.008,0.0039 c 1.43295,0.794707 2.792045,0.567294 3.939453,0.136719 -0.06978,0.255999 -0.17283,0.48886 -0.138671,0.824218 l 0.08987,0.89845 h 3.816407 l 1.359374,-0.21875 4.273438,0.05469 h 0.01758 c 3.621561,-0.08484 6.051409,-2.206226 8.017578,-4.25 l 0.02148,-0.02148 2.082031,-2.443359 1.634766,-2.462891 1.214843,-2.25 1.884766,-4.357422 1.423828,-3.527343 0.451172,-1.214844 h 0.279297 l 0.251953,-1.023438 0.75,-4.59375 0.617187,-3.722656 0.08594,-1.125 -0.744141,-1.378906 -3.3125,-1.511719 -1.673828,-0.716797 -0.365234,-0.234375 1.558593,-3.84375 1.603516,-3.880859 2,-5.232422 1.544922,-3.699219 1.328125,-3.330077 1.097656,-3.251953 0.0078,-0.0293 c 0.26977,-0.996532 0.0961,-1.990292 -0.447266,-2.697266 -0.543113,-0.707007 -1.434358,-1.097502 -2.347656,-1.029297 z m 0.07422,0.998047 c 1.202155,-0.08978 2.159937,0.974137 1.755859,2.466797 l -1.080078,3.197266 -1.314453,3.298827 -1.546875,3.705078 -2.001953,5.234375 -1.59961,3.871094 -1.777343,4.384765 -0.142579,0.226563 0.121094,0.05273 1.0625,0.679688 1.738281,0.744141 2.996094,1.367187 0.445313,0.826172 -0.06055,0.787109 -0.609375,3.681641 -0.744141,4.556641 -0.05469,0.222656 h -0.191407 l -0.6875,1.853515 -1.414062,3.501953 -1.863281,4.306641 -1.171875,2.171875 -1.578125,2.375 -2.023438,2.375 c -1.924059,2.000002 -4.071258,3.867239 -7.320312,3.94336 l -3.078125,-0.03906 0.566406,-0.884766 -1.699219,0.847657 -1.496089,0.240235 h -2.832031 c -0.08879,-0.872022 1.355469,-3.347656 1.355469,-3.347656 0,0 -2.685156,3.26645 -5.666014,1.613281 l -2.30469,-1.328125 -1.69922,-1.326172 0.0391,-0.484375 2.83203,-1.931641 -4.77343,0.04297 -1.05079,-0.365234 -1.17187,-1.166016 -2.58984,-2.697265 -1.33594,-1.970704 -1.375,-2.658203 -0.64844,-1.609376 -0.16015,-0.966796 0.12109,-0.361329 2.78906,-0.646484 4.45313,-1.646484 3.84375,-2.013672 3.19531,-2.134766 2.871095,-2.777344 3.722656,-4.224609 0.138672,0.08984 -0.08594,-0.240235 3.398438,-4.464843 1.171875,-1.53125 0.726562,-0.203125 h 0.851563 l 3.480468,1.492187 2.416016,1.011719 2.175781,-5.105469 3.146485,-6.208984 2.574218,-5.691405 2.97461,-5.578126 c 0.655174,-1.041615 1.464253,-1.510583 2.185547,-1.564453 z"
     id="path4356" />
  <path
     id="path4343"
     d="m 63.543185,16.381182 c -0.721294,0.05387 -1.530373,0.522838 -2.185547,1.564453 L 58.383028,23.52376 55.80881,29.215166 52.662325,35.42415 50.486544,40.529619 48.070528,39.5179 44.59006,38.025713 h -0.851563 l -0.726562,0.203125 -1.171875,1.53125 -3.398438,4.464843 0.08594,0.240235 -0.138674,-0.08984 -3.722656,4.224609 -2.87109,2.777344 -3.19532,2.134766 -3.84375,2.013672 -4.45312,1.646484 -2.78906,0.646484 -0.1211,0.361329 0.16016,0.966796 0.64844,1.609375 1.375,2.658203 1.33593,1.970704 2.58985,2.697265 1.17187,1.166016 1.05078,0.365234 4.77344,-0.04297 -2.83203,1.931641 -0.0391,0.484375 1.69922,1.326172 2.30469,1.328125 c 2.980856,1.653169 5.666012,-1.613281 5.666012,-1.613281 0,0 -1.444263,2.475634 -1.355469,3.347656 h 2.832031 l 1.496094,-0.240234 1.699219,-0.847657 -0.566406,0.884766 3.078125,0.03906 c 3.249054,-0.07612 5.396253,-1.943358 7.320312,-3.94336 l 2.023438,-2.375 1.578125,-2.375 1.171875,-2.171875 1.863281,-4.306641 1.414062,-3.501953 0.6875,-1.853515 h 0.191407 l 0.05469,-0.222656 0.744141,-4.556641 0.609375,-3.681641 0.06055,-0.787109 -0.445313,-0.826172 -2.996094,-1.367187 -1.738281,-0.744141 -1.0625,-0.679688 -0.121094,-0.05273 0.142579,-0.226563 1.777343,-4.384765 1.59961,-3.871094 2.001953,-5.234375 1.546875,-3.705078 1.314453,-3.298827 1.080078,-3.197266 c 0.404078,-1.49266 -0.553704,-2.556574 -1.755859,-2.466797 z"
     style="opacity:0.3;fill:#000000;fill-opacity:1;stroke:none;stroke-width:0.13478px;stroke-opacity:0.88889005" />
  <path
     style="fill:#e6e6e6;stroke:none;stroke-width:0.13478px;stroke-opacity:0.88889005"
     d="m 38.389143,43.375033 -3.722768,4.224262 -2.870983,2.778891 -3.19527,2.133639 -3.84383,2.013193 -4.45348,1.647548 -2.78884,0.645255 -0.12107,0.361341 0.15999,0.96788 0.64856,1.608833 1.37496,2.658445 1.33605,1.970174 2.58994,2.697163 1.17174,1.165758 1.05068,0.365643 4.77344,-0.04301 -2.83207,1.931459 -0.0389,0.486091 1.69924,1.324922 2.30457,1.329221 c 2.980863,1.653169 5.665195,-1.61418 5.665195,-1.61418 0,0 -1.443188,2.475741 -1.354394,3.347764 h 2.832071 l 1.496024,-0.240895 1.699244,-0.847434 -0.566415,0.886149 3.078525,0.03872 c 3.249054,-0.07612 5.396086,-1.94465 7.320146,-3.944652 l 2.023523,-2.374534 1.578178,-2.374534 1.171742,-2.172354 1.863546,-4.305993 1.413871,-3.501578 0.851784,-2.297102 -7.484445,-1.247497 -0.246455,0.27961 0.142677,-0.27961 -6.230554,-4.267278 -3.238505,-2.013191 -2.953135,-1.849728 z"
     id="path4425" />
  <path
     style="fill:url(#linearGradient4263);fill-opacity:1"
     d="m 61.357016,16.945438 -2.974755,5.579295 -2.572643,5.691137 -3.147705,6.207342 -2.174858,5.106108 -2.416988,-1.010897 -3.480637,-1.492688 h -0.851781 l -0.726394,0.202186 -1.171742,1.531403 -3.398484,4.465155 0.159989,0.443074 0.363198,0.524808 2.507786,1.488385 3.156353,1.93146 c 3.80682,2.307345 6.019174,5.323059 10.126908,6.480527 l 5.114358,0.591651 h 0.860431 l 0.05621,-0.223689 0.743688,-4.555491 0.609652,-3.682248 0.06052,-0.78721 -0.445347,-0.825925 -2.996374,-1.367938 -1.738156,-0.744194 -1.063648,-0.679665 -0.121071,-0.05163 0.142678,-0.227989 1.777071,-4.383425 1.599795,-3.871521 2.001906,-5.235159 1.547911,-3.703757 1.314426,-3.299397 1.079679,-3.197314 c 0.646525,-2.388256 -2.194846,-3.680039 -3.941978,-0.902398 z"
     id="path4429" />
  <g
     style="opacity:0.3;fill:#0000ff;fill-opacity:1"
     id="g4350"
     transform="matrix(2.2137709,0,0,2.2024662,-9.0170879,-7.5232359)" />
  <path
     id="path4204"
     d="m 58.758133,43.242509 c 0,0 -3.572352,7.165578 -3.972656,10.613281 -4.760825,10.646836 -12.816406,20.43164 -12.816406,20.43164 l -0.566406,0.884766 3.078125,0.03906 c 0.04145,-9.72e-4 0.07805,-0.01017 0.11914,-0.01172 l -2.207031,-0.02734 0.566406,-0.884766 c 0,0 8.055582,-9.784804 12.816406,-20.43164 0.36869,-3.175418 3.313971,-9.262281 3.794922,-10.242188 z"
     style="opacity:0.05;fill:#000000;fill-opacity:1" />
</svg>
