<?xml version="1.0" encoding="UTF-8"?>
<svg id="svg87" width="16px" height="16px" version="1.1" viewBox="0 0 16 16" xmlns="http://www.w3.org/2000/svg" xmlns:cc="http://creativecommons.org/ns#" xmlns:dc="http://purl.org/dc/elements/1.1/" xmlns:rdf="http://www.w3.org/1999/02/22-rdf-syntax-ns#" xmlns:xlink="http://www.w3.org/1999/xlink">
 <metadata id="metadata91">
  <rdf:RDF>
   <cc:Work rdf:about="">
    <dc:format>image/svg+xml</dc:format>
    <dc:type rdf:resource="http://purl.org/dc/dcmitype/StillImage"/>
   </cc:Work>
  </rdf:RDF>
 </metadata>
 <defs id="defs70">
  <filter id="alpha" x="0%" y="0%" width="100%" height="100%">
   <feColorMatrix id="feColorMatrix2" in="SourceGraphic" values="0 0 0 0 1 0 0 0 0 1 0 0 0 0 1 0 0 0 1 0"/>
  </filter>
  <mask id="mask0">
   <g id="g7" filter="url(#alpha)">
    <rect id="rect5" width="16" height="16" fill-opacity=".50196"/>
   </g>
  </mask>
  <linearGradient id="linear0" x1="46.811" x2="79.899" y1="74.62" y2="51.805" gradientTransform="matrix(.16667 0 0 .16667 -1.1012 -.43745)" gradientUnits="userSpaceOnUse">
   <stop id="stop10" offset="0"/>
   <stop id="stop12" stop-opacity="0" offset="1"/>
  </linearGradient>
  <clipPath id="clip1">
   <rect id="rect15" width="16" height="16"/>
  </clipPath>
  <g id="surface5" clip-path="url(#clip1)">
   <path id="path18" d="m13.598 6.9219c0.019532 0.24609-0.52344-0.5-0.52344-0.5l-1.5547 1.6055-1.5-0.71094-0.19531 1.7969-0.019531 0.027344v-0.011719l-0.57813 0.29297-0.40234 0.17969-0.35938 0.097657-0.375 0.058593-0.37109-0.003906-0.19531-0.039062-0.039063 0.03125-0.085937 0.10938-0.12109 0.19141-0.1875 0.33203-0.125 0.25781-0.13281 0.37891-0.054687 0.16797 0.015625 0.078125 0.23438 0.18359-0.32031 0.089844-0.046875 0.050782-0.046875 0.20312-0.015625 0.22656c-0.015625 0.28906 0.42578 0.054687 0.42578 0.054687s0.003906-0.027343-0.074219 0.070313l-0.03125-0.035156 0.21875-0.050781 0.058593 0.16406-0.17187-0.11328 0.26562 0.039062c0.16406 0.12109 0.074219 0.42188 0.35547 0.28906l0.24219-0.10938 0.52734-0.12109 0.26563-0.18359 0.5-0.375 0.40234-0.30859 0.20703-0.16797 0.011719 0.007812 0.023438-0.019531c0.94141-0.62109 2.3711-1.207 3.0742-1.9531 0.10156-0.10938-0.64063-0.68359-0.53125-0.77734l1.2695-1.1523z" fill="url(#linear0)"/>
  </g>
  <mask id="mask1">
   <g id="g23" filter="url(#alpha)">
    <rect id="rect21" width="16" height="16" fill-opacity=".10196"/>
   </g>
  </mask>
  <clipPath id="clip2">
   <rect id="rect26" width="16" height="16"/>
  </clipPath>
  <g id="surface8" clip-path="url(#clip2)">
   <path id="path29" d="m10.641 2.2305h-0.074219c-0.24609 0.019531-0.47266 0.17578-0.62109 0.41797-0.003906 0.003906-0.007812 0.011718-0.011718 0.019531l-0.49609 0.92969c-0.003906 0.003906-0.007812 0.011719-0.011719 0.019532l-0.42578 0.94141-0.51953 1.0273c-0.003907 0.007812-0.007813 0.015624-0.011719 0.019531l-0.23047 0.54688-0.097656-0.039063-0.57812-0.25c-0.039062-0.015625-0.085938-0.027343-0.12891-0.027343h-0.14453c-0.03125 0-0.058593 0.003906-0.089843 0.015624l-0.12109 0.03125c-0.070313 0.019532-0.12891 0.0625-0.17578 0.12109l-0.19531 0.25391-0.56641 0.74609c-0.011719 0.011719-0.019531 0.03125-0.027344 0.046875l-0.57812 0.65234-0.44531 0.43359-0.49219 0.32812-0.60547 0.31641-0.70313 0.26172-0.44531 0.10156c-0.11328 0.027344-0.20312 0.10938-0.24219 0.21875l-0.019531 0.0625c-0.015625 0.050781-0.019531 0.10547-0.011719 0.16016l0.027344 0.16016c0.003906 0.023437 0.007813 0.046875 0.019532 0.070312l0.10547 0.26953c0.003906 0.007812 0.011719 0.015624 0.015625 0.027343l0.22656 0.44141c0.007812 0.011718 0.015625 0.023437 0.023437 0.035156l0.22266 0.32812c0.007812 0.015625 0.019531 0.03125 0.035156 0.042969l0.42969 0.44922c0.003907 0.003906 0.003907 0.003906 0.007813 0.007813l0.19531 0.19141c0.035156 0.035156 0.078125 0.0625 0.125 0.082031l0.17578 0.058594c0.03125 0.011719 0.0625 0.015625 0.09375 0.019531v0.035157c-0.011719 0.11328 0.039062 0.21875 0.125 0.28906l0.28516 0.22266c0.011718 0.007813 0.023437 0.015625 0.039062 0.023438l0.38281 0.22266s0.003906 0 0.003906 0.003906c0.19141 0.10547 0.38672 0.125 0.56641 0.10156 0.042969 0.13672 0.17188 0.22656 0.31641 0.22656h0.46875c0.019531 0 0.035156 0 0.054687-0.003906l0.25-0.039063c0.007813 0 0.019531-0.003906 0.03125-0.007812 0.03125 0.011719 0.066406 0.019531 0.097656 0.019531l0.51562 0.003907h0.011719c0.66406-0.015626 1.1172-0.41016 1.4531-0.75781 0.003906-0.003906 0.007812-0.011719 0.011719-0.015625l0.33594-0.39453c0.011719-0.011719 0.019532-0.023438 0.027344-0.03125l0.26172-0.39844c0.003906-0.007812 0.011719-0.015625 0.015625-0.023437l0.19531-0.36328c0.003906-0.007812 0.007813-0.015624 0.011719-0.027343l0.3125-0.71484c0-0.003906 0-0.007813 0.003906-0.007813l0.23438-0.58594c0-0.003906 0-0.003906 0.003906-0.007813l0.03125-0.089843h-0.19922c0.15234-0.003907 0.28906-0.10547 0.32422-0.25391l0.007813-0.039062c0.003906-0.007812 0.003906-0.015625 0.007813-0.027344l0.12109-0.75781 0.10156-0.61328c0.003906-0.007812 0.003906-0.019531 0.003906-0.027343l0.011719-0.13281c0.003906-0.0625-0.007813-0.125-0.039063-0.18359l-0.074218-0.13672c-0.035157-0.066406-0.089844-0.11719-0.15625-0.14453l-0.5-0.23047h-0.003907l-0.19531-0.082032 0.20312-0.5 0.26562-0.64453c0.003906-0.003906 0.003906-0.007812 0.003906-0.007812l0.33203-0.87109 0.25781-0.60938v-0.007812l0.21875-0.54688c0.003906-0.007812 0.003906-0.011718 0.007812-0.019531l0.17969-0.53125c0-0.007812 0.003906-0.011719 0.003906-0.019531 0.058594-0.20703 0.023437-0.43359-0.10156-0.59375-0.10937-0.14453-0.28125-0.23047-0.46094-0.23828zm-0.050781 0.33203c0.19922-0.015625 0.35938 0.16406 0.29297 0.41406l-0.17969 0.53125-0.21875 0.55078-0.25781 0.61719-0.33203 0.87109-0.26953 0.64453-0.29688 0.73047-0.023437 0.039063 0.023437 0.007812 0.17578 0.11328 0.28906 0.125 0.5 0.22656 0.074219 0.14062-0.011719 0.12891-0.10156 0.61328-0.12109 0.76172-0.011718 0.035156h-0.03125l-0.11328 0.30859-0.23828 0.58594-0.30859 0.71484-0.19531 0.36328-0.26172 0.39453-0.33984 0.39844c-0.32031 0.33203-0.67969 0.64453-1.2188 0.65625l-0.51172-0.007812 0.09375-0.14453-0.28516 0.14063-0.25 0.039062h-0.46875c-0.015626-0.14453 0.22266-0.55859 0.22266-0.55859s-0.44531 0.54688-0.94141 0.26953l-0.38672-0.22266-0.28125-0.21875 0.003906-0.082031 0.47266-0.32031-0.79297 0.007812-0.17578-0.0625-0.19531-0.19531-0.43359-0.44922-0.22266-0.32812-0.22656-0.44141-0.10938-0.26953-0.027343-0.16016 0.019531-0.0625 0.46484-0.10547 0.74219-0.27734 0.64062-0.33203 0.53516-0.35938 0.47656-0.46094 0.62109-0.70312 0.023437 0.015625-0.015625-0.042969 0.56641-0.74219 0.19531-0.25781 0.12109-0.03125h0.14453l0.57812 0.24609 0.40234 0.17188 0.36328-0.85156 0.52344-1.0352 0.42969-0.94922 0.49609-0.92969c0.10938-0.17188 0.24219-0.25 0.36328-0.26172z"/>
  </g>
  <mask id="mask2">
   <g id="g34" filter="url(#alpha)">
    <rect id="rect32" width="16" height="16" fill-opacity=".14902"/>
   </g>
  </mask>
  <clipPath id="clip3">
   <rect id="rect37" width="16" height="16"/>
  </clipPath>
  <g id="surface11" clip-path="url(#clip3)">
   <path id="path40" d="m10.578 2.3984c-0.18359 0.011718-0.36328 0.12891-0.49219 0.33594l-0.003907 0.007813-0.5 0.9375-0.42969 0.94922-0.52734 1.0391-0.30078 0.70312-0.24609-0.10547-0.61328-0.26172h-0.19922l-0.19531 0.054688-0.23047 0.30078-0.62109 0.81641 0.003906 0.003907-0.56641 0.63672-0.46094 0.44922-0.51562 0.34375-0.62109 0.32422-0.72266 0.26953-0.54688 0.125-0.0625 0.1875 0.039063 0.22266 0.11719 0.28906 0.23828 0.46094 0.23438 0.34766 0.44141 0.46094 0.22656 0.22266 0.23828 0.082031h0.27344l-0.082031 0.054688-0.023437 0.25 0.36328 0.28516 0.39844 0.22656c0.23828 0.13281 0.46484 0.097656 0.65625 0.023437-0.011718 0.042969-0.027344 0.082032-0.023437 0.13672l0.015625 0.15234h0.63672l0.22656-0.039063 0.71094 0.011719h0.003907c0.60156-0.015625 1.0078-0.36719 1.3359-0.71094l0.003906-0.003907 0.34766-0.40625 0.26953-0.41016 0.20312-0.375 0.31641-0.72656 0.23438-0.58594 0.078125-0.20312h0.046875l0.039063-0.17188 0.125-0.76562 0.10547-0.62109 0.011718-0.1875-0.12109-0.22656-0.55469-0.25391-0.27734-0.12109-0.0625-0.039063 0.26172-0.64062 0.26562-0.64453 0.33594-0.87109 0.25391-0.61719 0.22266-0.55469 0.18359-0.54297v-0.003907c0.046875-0.16797 0.015625-0.33203-0.074219-0.44922-0.089844-0.12109-0.23828-0.18359-0.39062-0.17187zm0.011719 0.16406c0.19922-0.015625 0.35938 0.16406 0.29297 0.41406l-0.17969 0.53125-0.21875 0.55078-0.25781 0.61719-0.33203 0.87109-0.26953 0.64453-0.29688 0.73047-0.023437 0.039063 0.023437 0.007812 0.17578 0.11328 0.28906 0.125 0.5 0.22656 0.074219 0.14062-0.011719 0.12891-0.10156 0.61328-0.12109 0.76172-0.011718 0.035156h-0.03125l-0.11328 0.30859-0.23828 0.58594-0.30859 0.71484-0.19531 0.36328-0.26172 0.39453-0.33984 0.39844c-0.32031 0.33203-0.67969 0.64453-1.2188 0.65625l-0.51172-0.007812 0.09375-0.14453-0.28516 0.14063-0.25 0.039062h-0.46875c-0.015626-0.14453 0.22266-0.55859 0.22266-0.55859s-0.44531 0.54688-0.94141 0.26953l-0.38672-0.22266-0.28125-0.21875 0.003906-0.082031 0.47266-0.32031-0.79297 0.007812-0.17578-0.0625-0.19531-0.19531-0.43359-0.44922-0.22266-0.32812-0.22656-0.44141-0.10938-0.26953-0.027343-0.16016 0.019531-0.0625 0.46484-0.10547 0.74219-0.27734 0.64062-0.33203 0.53516-0.35938 0.47656-0.46094 0.62109-0.70312 0.023437 0.015625-0.015625-0.042969 0.56641-0.74219 0.19531-0.25781 0.12109-0.03125h0.14453l0.57812 0.24609 0.40234 0.17188 0.36328-0.85156 0.52344-1.0352 0.42969-0.94922 0.49609-0.92969c0.10938-0.17188 0.24219-0.25 0.36328-0.26172z"/>
  </g>
  <mask id="mask3">
   <g id="g45" filter="url(#alpha)">
    <rect id="rect43" width="16" height="16" fill-opacity=".30196"/>
   </g>
  </mask>
  <clipPath id="clip4">
   <rect id="rect48" width="16" height="16"/>
  </clipPath>
  <g id="surface14" clip-path="url(#clip4)">
   <path id="path51" d="m10.59 2.7305c-0.12109 0.007812-0.25391 0.085937-0.36328 0.26172l-0.49609 0.92969-0.42969 0.94922-0.52344 1.0312-0.36328 0.85156-0.40234-0.16797-0.57812-0.25h-0.14453l-0.12109 0.035156-0.19531 0.25391-0.56641 0.74609 0.015625 0.039062-0.023437-0.015625-0.62109 0.70703-0.47656 0.46094-0.53516 0.35547-0.64062 0.33594-0.74219 0.27344-0.46484 0.10938-0.019531 0.058593 0.027343 0.16406 0.10938 0.26562 0.22656 0.44531 0.22266 0.32813 0.43359 0.44922 0.19531 0.19531 0.17578 0.058593 0.79297-0.007812-0.47266 0.32422-0.003906 0.078125 0.28125 0.22266 0.38672 0.22266c0.49609 0.27344 0.94141-0.26953 0.94141-0.26953s-0.23828 0.41016-0.22266 0.55859h0.46875l0.25-0.042969 0.28516-0.14062-0.09375 0.14844 0.51172 0.007813c0.53906-0.015625 0.89844-0.32422 1.2188-0.66016l0.33984-0.39453 0.26172-0.39453 0.19531-0.36328 0.30859-0.71875 0.23828-0.58203 0.11328-0.30859h0.03125l0.011718-0.039062 0.12109-0.75781 0.10156-0.61328 0.011719-0.13281-0.074219-0.13672-0.5-0.22656-0.28906-0.125-0.17578-0.11328-0.023437-0.007813 0.023437-0.039062 0.29688-0.73047 0.26953-0.64453 0.33203-0.875 0.25781-0.61719 0.21875-0.54688 0.17969-0.53516c0.066407-0.25-0.09375-0.42578-0.29297-0.41016z"/>
  </g>
  <linearGradient id="linear1" x1="163.86" x2="106.39" y1="21.589" y2="167.4" gradientTransform="matrix(.049729 0 0 .049475 2.7786 1.1733)" gradientUnits="userSpaceOnUse">
   <stop id="stop54" stop-color="#5c5c5c" offset="0"/>
   <stop id="stop56" stop-color="#202020" offset="1"/>
  </linearGradient>
  <mask id="mask4">
   <g id="g61" filter="url(#alpha)">
    <rect id="rect59" width="16" height="16" fill-opacity=".05098"/>
   </g>
  </mask>
  <clipPath id="clip5">
   <rect id="rect64" width="16" height="16"/>
  </clipPath>
  <g id="surface18" clip-path="url(#clip5)">
   <path id="path67" d="m9.793 7.207s-0.59375 1.1953-0.66016 1.7695c-0.79687 1.7734-2.1367 3.4062-2.1367 3.4062l-0.09375 0.14453 0.51172 0.007812h0.019532l-0.36719-0.007812 0.09375-0.14453s1.3438-1.6328 2.1367-3.4062c0.058594-0.53125 0.55078-1.543 0.63281-1.707z"/>
  </g>
 </defs>
 <g id="surface1" transform="matrix(1.3919 0 0 1.4387 -3.2432 -2.8089)">
  <use id="use72" width="100%" height="100%" mask="url(#mask0)" xlink:href="#surface5"/>
  <use id="use74" width="100%" height="100%" mask="url(#mask1)" xlink:href="#surface8"/>
  <use id="use76" width="100%" height="100%" mask="url(#mask2)" xlink:href="#surface11"/>
  <use id="use78" width="100%" height="100%" mask="url(#mask3)" xlink:href="#surface14"/>
  <path id="path80" d="m6.3984 7.2305-0.62109 0.70312-0.47656 0.46094-0.53516 0.35938-0.64062 0.33203-0.74219 0.27734-0.46484 0.10547-0.019531 0.0625 0.027343 0.16016 0.10938 0.26953 0.22656 0.44141 0.22266 0.32812 0.43359 0.44922 0.19531 0.19531 0.17578 0.05859 0.79297-0.0039-0.47266 0.32031-0.00391 0.08203 0.28125 0.21875 0.38672 0.22266c0.49609 0.27734 0.94141-0.26953 0.94141-0.26953s-0.23828 0.41406-0.22266 0.55859h0.46875l0.25-0.03906 0.28516-0.14063-0.09375 0.14453 0.51172 0.0078c0.53906-0.01172 0.89844-0.32422 1.2188-0.65625l0.33985-0.39843 0.26172-0.39453 0.19531-0.36328 0.30859-0.71484 0.23828-0.58594 0.14063-0.38281-1.2461-0.20703-0.042969 0.046875 0.023437-0.046875-1.0391-0.71094-0.53906-0.33594-0.49219-0.30859z" fill="#e6e6e6"/>
  <path id="path82" d="m10.227 2.8242-0.49609 0.92969-0.42969 0.94922-0.52344 1.0352-0.36328 0.85156-0.40234-0.17188-0.58203-0.24609h-0.14063l-0.12109 0.03125-0.19531 0.25781-0.56641 0.74219 0.027344 0.074219 0.058594 0.089844 0.41797 0.24609 0.52734 0.32031c0.63672 0.38672 1.0039 0.89062 1.6875 1.082l0.85156 0.097656h0.14453l0.01172-0.035156 0.12109-0.76172 0.10156-0.61328 0.01172-0.12891-0.07422-0.14062-0.5-0.22656-0.28906-0.125-0.17969-0.11328-0.019531-0.007812 0.023437-0.039063 0.29688-0.73047 0.26562-0.64453 0.33594-0.87109 0.25781-0.61719 0.21875-0.55078 0.17969-0.53125c0.10938-0.39844-0.36719-0.61719-0.65625-0.15234z" fill="url(#linear1)"/>
  <use id="use84" width="100%" height="100%" mask="url(#mask4)" xlink:href="#surface18"/>
 </g>
</svg>
