<?xml version="1.0" encoding="UTF-8" standalone="no"?>
<svg
   xmlns:dc="http://purl.org/dc/elements/1.1/"
   xmlns:cc="http://creativecommons.org/ns#"
   xmlns:rdf="http://www.w3.org/1999/02/22-rdf-syntax-ns#"
   xmlns:svg="http://www.w3.org/2000/svg"
   xmlns="http://www.w3.org/2000/svg"
   xmlns:xlink="http://www.w3.org/1999/xlink"
   id="svg122"
   version="1.1"
   width="96"
   height="96">
  <metadata
     id="metadata126">
    <rdf:RDF>
      <cc:Work
         rdf:about="">
        <dc:format>image/svg+xml</dc:format>
        <dc:type
           rdf:resource="http://purl.org/dc/dcmitype/StillImage" />
        <dc:title></dc:title>
      </cc:Work>
    </rdf:RDF>
  </metadata>
  <defs
     id="defs52">
    <linearGradient
       stop-color="#fff"
       id="c">
      <stop
         id="stop2"
         offset="0" />
      <stop
         id="stop4"
         offset="1"
         stop-opacity="0" />
    </linearGradient>
    <filter
       x="-.192"
       y="-.192"
       color-interpolation-filters="sRGB"
       width="1.384"
       height="1.384"
       id="g">
      <feGaussianBlur
         id="feGaussianBlur7"
         stdDeviation="5.28" />
    </filter>
    <linearGradient
       x1="48"
       y1="20.221"
       x2="48"
       gradientUnits="userSpaceOnUse"
       xlink:href="#c"
       y2="138.66"
       id="r" />
    <clipPath
       id="f">
      <rect
         id="rect11"
         fill="#fff"
         x="6"
         y="6"
         width="84"
         height="84"
         ry="6"
         rx="6" />
    </clipPath>
    <clipPath
       id="d">
      <rect
         id="rect14"
         fill="url(#h)"
         x="6"
         y="6"
         width="84"
         height="84"
         ry="6"
         rx="6" />
    </clipPath>
    <linearGradient
       x1="48"
       y1="90"
       x2="48"
       gradientUnits="userSpaceOnUse"
       y2="5.9877"
       id="h">
      <stop
         id="stop17"
         offset="0"
         stop-color="#70a83e" />
      <stop
         id="stop19"
         offset="1"
         stop-color="#9fd058" />
    </linearGradient>
    <linearGradient
       x1="45.448"
       y1="92.54"
       gradientTransform="matrix(1 0 0 1 100 0)"
       x2="45.448"
       gradientUnits="userSpaceOnUse"
       y2="7.0165"
       id="b">
      <stop
         id="stop22"
         offset="0" />
      <stop
         id="stop24"
         offset="1"
         stop-opacity=".58824" />
    </linearGradient>
    <linearGradient
       x1="86.133"
       y1="105.1"
       gradientTransform="matrix(.41503 0 0 .41503 21.438 20.853)"
       x2="84.639"
       gradientUnits="userSpaceOnUse"
       y2="20.895"
       id="q">
      <stop
         id="stop27"
         offset="0"
         stop-color="#e5e5e5" />
      <stop
         id="stop29"
         offset="1"
         stop-color="#ababab" />
    </linearGradient>
    <linearGradient
       x1="20.759"
       y1="1"
       gradientTransform="matrix(1.2791,0,0,1.2791,17.302,17.582)"
       x2="20.759"
       gradientUnits="userSpaceOnUse"
       y2="45.017"
       id="p">
      <stop
         id="stop32"
         offset="0"
         stop-color="#f6f6f6" />
      <stop
         id="stop34"
         offset="1"
         stop-color="#d2d2d2" />
    </linearGradient>
    <linearGradient
       x1="37.201"
       y1="1"
       gradientTransform="matrix(1.2791,0,0,1.2791,17.302,17.582)"
       x2="37.201"
       gradientUnits="userSpaceOnUse"
       y2="45"
       id="o">
      <stop
         id="stop37"
         offset="0"
         stop-color="#aaa" />
      <stop
         id="stop39"
         offset="1"
         stop-color="#8c8c8c" />
    </linearGradient>
    <radialGradient
       r="42"
       gradientTransform="matrix(1.1573 0 0 .99591 -7.551 .19713)"
       cx="48"
       cy="90.172"
       gradientUnits="userSpaceOnUse"
       xlink:href="#c"
       id="e" />
    <linearGradient
       x1="36.357"
       y1="6"
       x2="36.357"
       gradientUnits="userSpaceOnUse"
       xlink:href="#c"
       y2="63.893"
       id="n" />
    <linearGradient
       x1="48"
       y1="6"
       x2="48"
       gradientUnits="userSpaceOnUse"
       y2="90"
       id="m">
      <stop
         id="stop44"
         offset="0"
         stop-color="#80a2c8" />
      <stop
         id="stop46"
         offset="1"
         stop-color="#2e4c6d" />
    </linearGradient>
    <linearGradient
       x1="32.251"
       y1="90"
       gradientTransform="translate(0,1)"
       x2="32.251"
       gradientUnits="userSpaceOnUse"
       xlink:href="#b"
       y2="6"
       id="k" />
    <linearGradient
       x1="32.251"
       y1="90"
       gradientTransform="matrix(1.0238 0 0 1.0119 -1.1429 .929)"
       x2="32.251"
       gradientUnits="userSpaceOnUse"
       xlink:href="#b"
       y2="5.9996"
       id="j" />
    <linearGradient
       x1="32.251"
       y1="6.1317"
       gradientTransform="matrix(1.0238,0,0,-1.0119,-1.1429,98.071)"
       x2="32.251"
       gradientUnits="userSpaceOnUse"
       xlink:href="#b"
       y2="90.239"
       id="i" />
    <linearGradient
       gradientUnits="userSpaceOnUse"
       y2="51.804909"
       x2="79.899368"
       y1="74.620186"
       x1="46.810825"
       id="linearGradient4219"
       xlink:href="#linearGradient4213"
       gradientTransform="translate(-6.6070979,-2.6246789)" />
    <linearGradient
       id="linearGradient4213">
      <stop
         id="stop4215"
         offset="0"
         style="stop-color:#000000;stop-opacity:1;" />
      <stop
         id="stop4217"
         offset="1"
         style="stop-color:#000000;stop-opacity:0;" />
    </linearGradient>
    <linearGradient
       y2="159.17"
       x2="110.94"
       y1="169.5625"
       x1="60.486027"
       gradientTransform="matrix(0.29837204,0,0,0.29684839,16.501162,6.5847281)"
       gradientUnits="userSpaceOnUse"
       id="linearGradient4257"
       xlink:href="#linearGradient4295" />
    <linearGradient
       id="linearGradient4295">
      <stop
         style="stop-color:#ffb87d;stop-opacity:1"
         id="stop4299"
         stop-color="#ffd287"
         stop-opacity=".71765"
         offset="0" />
      <stop
         id="stop4301"
         stop-color="#ffcb8b"
         offset="1" />
    </linearGradient>
    <linearGradient
       y2="167.39952"
       x2="106.38776"
       y1="21.589359"
       x1="163.86353"
       gradientTransform="matrix(0.29837204,0,0,0.29684839,16.671622,7.0399781)"
       gradientUnits="userSpaceOnUse"
       id="linearGradient4263"
       xlink:href="#linearGradient4232" />
    <linearGradient
       id="linearGradient4232">
      <stop
         id="stop4234"
         style="stop-color:#5d5d5d;stop-opacity:1"
         offset="0" />
      <stop
         id="stop4236"
         style="stop-color:#212121;stop-opacity:1"
         offset="1" />
    </linearGradient>
    <linearGradient
       gradientUnits="userSpaceOnUse"
       y2="56.861904"
       x2="54.77459"
       y1="6.1759281"
       x1="69.057976"
       id="linearGradient4251"
       xlink:href="#c"
       gradientTransform="translate(-6.6070979,-2.6246789)" />
    <linearGradient
       gradientUnits="userSpaceOnUse"
       y2="66.585457"
       x2="64.34137"
       y1="63.78336"
       x1="58.472698"
       id="linearGradient4199"
       xlink:href="#linearGradient4209"
       gradientTransform="translate(-6.6070979,-2.6246789)" />
    <linearGradient
       id="linearGradient4209">
      <stop
         id="stop4211"
         style="stop-color:#000000;stop-opacity:1"
         offset="0" />
      <stop
         id="stop4213"
         style="stop-color:#ffffff;stop-opacity:0"
         offset="1" />
    </linearGradient>
  </defs>
  <g
     id="g60"
     fill="url(#i)">
    <path
       id="path54"
       d="m12 95.031c-5.5111 0-10.031-4.52-10.031-10.031v-71c0-5.5111 4.5202-10.031 10.031-10.031h72c5.5111 0 10.031 4.5202 10.031 10.031v71c0 5.5111-4.5202 10.031-10.031 10.031h-72z"
       opacity="0.08" />
    <path
       id="path56"
       d="m12 94.031c-4.9716 0-9.0312-4.0596-9.0312-9.0312v-71c0-4.9718 4.0596-9.0314 9.0312-9.0314h72c4.9716 0 9.0312 4.0596 9.0312 9.0312v71c0 4.9716-4.0596 9.0312-9.0312 9.0312h-72z"
       opacity=".1" />
    <path
       id="path58"
       d="m12 93c-4.4091 0-8-3.591-8-8v-71c0-4.4091 3.5909-8 8-8h72c4.4091 0 8 3.5909 8 8v71c0 4.4091-3.5909 8-8 8h-72z"
       opacity=".2" />
  </g>
  <rect
     id="rect62"
     fill="url(#j)"
     x="5"
     y="7"
     width="86"
     height="85"
     ry="7"
     rx="7"
     opacity=".3" />
  <rect
     id="rect64"
     fill="url(#k)"
     x="6"
     y="7"
     width="84"
     height="84"
     ry="6"
     rx="6"
     opacity=".45" />
  <rect
     id="rect66"
     fill="url(#m)"
     x="6"
     y="6"
     width="84"
     height="84"
     ry="6"
     rx="6" />
  <path
     id="path68"
     fill="url(#n)"
     d="m12 6c-3.324 0-6 2.676-6 6v72c0 0.33472 0.04135 0.6507 0.09375 0.96875 0.0487 0.2956 0.09704 0.59692 0.1875 0.875 0.00988 0.03038 0.020892 0.0636 0.03125 0.09375 0.098865 0.28777 0.23488 0.54745 0.375 0.8125 0.14459 0.27351 0.31562 0.53562 0.5 0.78125 0.18438 0.24564 0.37378 0.47347 0.59375 0.6875 0.43995 0.42806 0.94291 0.81453 1.5 1.0938 0.27854 0.13961 0.57347 0.24695 0.875 0.34375-0.2562-0.10022-0.48671-0.23627-0.71875-0.375-0.00741-0.0044-0.023866 0.0045-0.03125 0-0.0319-0.019-0.0622-0.042-0.0937-0.062-0.1204-0.077-0.231-0.164-0.3437-0.25-0.1062-0.081-0.2133-0.161-0.3126-0.25-0.1778-0.162-0.3473-0.346-0.4999-0.531-0.1075-0.131-0.2183-0.266-0.3124-0.407-0.0251-0.038-0.0385-0.086-0.0626-0.125-0.0647-0.103-0.1302-0.204-0.1874-0.312-0.1011-0.195-0.2057-0.416-0.2813-0.625-0.008-0.022-0.0236-0.041-0.0313-0.063-0.0318-0.092-0.0358-0.187-0.0624-0.281-0.0304-0.107-0.0704-0.203-0.0938-0.313-0.0729-0.341-0.125-0.698-0.125-1.062v-72c0-2.782 2.2182-5 5-5h72c2.7818 0 5 2.2182 5 5v72c0 0.3643-0.05212 0.72099-0.125 1.0625-0.04415 0.20689-0.08838 0.39766-0.15625 0.59375-0.0077 0.02195-0.0233 0.04069-0.03125 0.0625-0.06274 0.17374-0.13838 0.36745-0.21875 0.53125-0.04158 0.0828-0.07904 0.16995-0.125 0.25-0.0546 0.09721-0.12677 0.18835-0.1875 0.28125-0.09411 0.14096-0.20492 0.276-0.3125 0.40625-0.14317 0.17445-0.30314 0.347-0.46875 0.5-0.01117 0.0102-0.01998 0.02115-0.03125 0.03125-0.13839 0.12556-0.28509 0.23444-0.4375 0.34375-0.10257 0.07315-0.20432 0.15336-0.3125 0.21875-0.0074 0.0045-0.02384-0.0044-0.03125 0-0.23204 0.13873-0.46255 0.27478-0.71875 0.375 0.30153-0.0968 0.59646-0.20414 0.875-0.34375 0.55709-0.27922 1.0601-0.66569 1.5-1.0938 0.21997-0.21403 0.40937-0.44186 0.59375-0.6875s0.35541-0.50774 0.5-0.78125c0.14012-0.26505 0.27614-0.52473 0.375-0.8125 0.01041-0.03078 0.02133-0.06274 0.03125-0.09375 0.09046-0.27808 0.1388-0.5794 0.1875-0.875 0.053-0.318 0.094-0.634 0.094-0.969v-72c0-3.324-2.676-6-6-6h-72z"
     opacity=".4" />
  <path
     id="path70"
     fill="url(#e)"
     d="m12 90c-3.324 0-6-2.676-6-6v-72c0-0.33472 0.04135-0.6507 0.09375-0.96875 0.0487-0.2956 0.09704-0.59692 0.1875-0.875 0.0099-0.03 0.0209-0.063 0.0313-0.094 0.0989-0.2873 0.2349-0.547 0.375-0.812 0.1446-0.2735 0.3156-0.5356 0.5-0.7812 0.1844-0.2457 0.3738-0.4735 0.5937-0.6876 0.44-0.428 0.943-0.8145 1.5-1.0937 0.2786-0.1396 0.5735-0.2469 0.8748-0.3437-0.256 0.1002-0.4865 0.2362-0.7185 0.375-0.00741 0.0044-0.023866-0.0045-0.03125 0-0.031933 0.0193-0.062293 0.04251-0.09375 0.0625-0.1204 0.0767-0.23102 0.16351-0.34375 0.25-0.10617 0.0808-0.21328 0.16111-0.3125 0.25-0.1779 0.1614-0.3474 0.3453-0.5 0.5312-0.1075 0.1303-0.2183 0.2653-0.3124 0.4063-0.0251 0.0383-0.0385 0.0858-0.0626 0.125-0.0647 0.103-0.1302 0.2045-0.1874 0.3124-0.1011 0.1948-0.2057 0.4158-0.2813 0.625-0.008 0.0219-0.0236 0.0406-0.0313 0.0626-0.0318 0.0919-0.0358 0.1868-0.0624 0.2812-0.0304 0.1066-0.0704 0.203-0.0938 0.3125-0.0729 0.3415-0.125 0.6985-0.125 1.0625v72c0 2.7818 2.2182 5 5 5h72c2.7818 0 5-2.2182 5-5v-72c0-0.364-0.052-0.721-0.125-1.0625-0.044-0.2069-0.088-0.3977-0.156-0.5937-0.008-0.022-0.024-0.0407-0.031-0.0626-0.063-0.1737-0.139-0.3674-0.219-0.5312-0.042-0.0828-0.079-0.17-0.125-0.25-0.055-0.0972-0.127-0.1884-0.188-0.2812-0.094-0.141-0.205-0.276-0.312-0.4063-0.143-0.1745-0.303-0.347-0.469-0.5-0.011-0.0102-0.02-0.0211-0.031-0.0313-0.139-0.1255-0.285-0.2344-0.438-0.3437-0.102-0.0731-0.204-0.1534-0.312-0.2187-0.0074-0.0045-0.02384 0.0044-0.03125 0-0.23204-0.13873-0.46255-0.27478-0.71875-0.375 0.30153 0.0968 0.59646 0.20414 0.875 0.34375 0.55709 0.27922 1.0601 0.66569 1.5 1.0938 0.21997 0.21403 0.40937 0.44186 0.59375 0.6875s0.35541 0.50774 0.5 0.78125c0.14012 0.26505 0.27614 0.52473 0.375 0.8125 0.01041 0.03078 0.02133 0.06274 0.03125 0.09375 0.09046 0.27808 0.1388 0.5794 0.1875 0.875 0.053 0.318 0.094 0.634 0.094 0.969v72c0 3.324-2.676 6-6 6h-72z"
     opacity=".2" />
  <g
     id="g104"
     clip-path="url(#d)"
     fill="#acf"
     opacity=".9">
    <path
       id="path72"
       d="m48 48 24-56h16l-40 56z"
       opacity=".15" />
    <path
       id="path74"
       d="m48 48 55.25 25.677-0.48 15.993-54.77-41.67z"
       opacity=".15" />
    <path
       id="path76"
       d="m48 48-59.828 11.516-8.969-13.25 68.797 1.734z"
       opacity=".15" />
    <path
       id="path78"
       d="m48 48-49.311-35.783 3.5359-15.604 45.775 51.387z"
       opacity=".15" />
    <path
       id="path80"
       d="m48 48 17.519-62.073 30.436 12.714-47.955 49.359z"
       opacity=".15" />
    <path
       id="path82"
       d="m48 48 61.64-19.001 5.85 32.461-67.49-13.46z"
       opacity=".15" />
    <path
       id="path84"
       d="m48 48-31.246 56.42-26.723-19.331 57.969-37.089z"
       opacity=".15" />
    <path
       id="path86"
       d="m48 48-62.812-14.651 11.304-30.988 51.508 45.639z"
       opacity=".15" />
    <path
       id="path88"
       d="m48 48 45.81 45.403-3.692 9.027-42.118-54.43z"
       opacity=".15" />
    <path
       id="path90"
       d="m48 48-2.9701 64.43-9.1685 3.31l12.137-67.74z"
       opacity=".15" />
    <path
       id="path92"
       d="m48 48-44.859 46.343-9.0649-3.585 53.924-42.758z"
       opacity=".15" />
    <path
       id="path94"
       d="m48 48-62.116 17.366-6.016-7.67 68.132-9.696z"
       opacity=".15" />
    <path
       id="path96"
       d="m48 48-29.147-57.537 6.35-7.396 22.797 64.933z"
       opacity=".15" />
    <path
       id="path98"
       d="m48 48 59.482-24.939 6.921 6.8641l-66.4 18.074z"
       opacity=".15" />
    <path
       id="path100"
       d="m48 48 40.187 45.793-6.897 14.437-33.29-60.23z"
       opacity=".15" />
    <path
       id="path102"
       d="m48 48-35.958-49.184 8.152-13.767 27.806 62.951z"
       opacity=".15" />
  </g>
  <rect
     id="rect106"
     fill="url(#r)"
     stroke-width=".5"
     x="15"
     y="15"
     stroke-linecap="round"
     stroke="#fff"
     width="66"
     filter="url(#g)"
     height="66"
     ry="12"
     rx="12"
     clip-path="url(#f)"
     opacity=".1" />
  <g
     style="fill:#00ac00;fill-opacity:1"
     id="g4326"
     transform="matrix(2.2137709,0,0,2.2024662,-9.0169779,-7.5229489)" />
  <path
     id="path4205"
     d="m 81.580273,41.53754 c 0.133069,1.473861 -3.131902,-2.998554 -3.131902,-2.998554 l -9.323441,9.626512 -9.009547,-4.267341 -1.178662,10.783422 -0.112651,0.170288 0.01149,-0.0886 -3.48602,1.770265 -2.413629,1.064687 -2.139449,0.587127 -2.256675,0.35974 -2.221953,-0.01236 -1.171661,-0.248261 -0.241424,0.197563 -0.506739,0.64187 -0.733743,1.157807 -1.124512,1.983457 -0.742648,1.544517 -0.79751,2.292053 -0.329722,1.003079 0.09333,0.474131 1.397208,1.089744 -1.918844,0.545122 -0.288185,0.293677 -0.269656,1.226559 -0.09666,1.369412 c -0.08808,1.73079 2.551744,0.316836 2.551744,0.316836 0,0 0.02561,-0.151551 -0.447456,0.414376 l -0.175728,-0.203864 1.310148,-0.295266 0.354483,0.981419 -1.040051,-0.693231 1.605377,0.249409 c 0.977814,0.712435 0.435181,2.522618 2.132017,1.722376 l 1.444779,-0.640153 3.173162,-0.744321 1.578813,-1.083652 2.998246,-2.256497 2.408965,-1.858518 1.257496,-0.99793 0.05504,0.04478 0.143035,-0.126404 c 5.644984,-3.720567 14.238397,-7.245521 18.453398,-11.718323 0.611599,-0.649006 -3.83641,-4.104572 -3.18689,-4.659728 l 7.624215,-6.913268 z"
     style="opacity:0.5;fill:url(#linearGradient4219);fill-opacity:1;stroke:none;stroke-width:0.13478px;stroke-opacity:0.88889005" />
  <path
     style="color:#000000;font-style:normal;font-variant:normal;font-weight:normal;font-stretch:normal;font-size:medium;line-height:normal;font-family:sans-serif;text-indent:0;text-align:start;text-decoration:none;text-decoration-line:none;text-decoration-style:solid;text-decoration-color:#000000;letter-spacing:normal;word-spacing:normal;text-transform:none;writing-mode:lr-tb;direction:ltr;baseline-shift:baseline;text-anchor:start;white-space:normal;clip-rule:nonzero;display:inline;overflow:visible;visibility:visible;opacity:0.1;isolation:auto;mix-blend-mode:normal;color-interpolation:sRGB;color-interpolation-filters:linearRGB;solid-color:#000000;solid-opacity:1;fill:#000000;fill-opacity:1;fill-rule:nonzero;stroke:none;stroke-width:4;stroke-linecap:round;stroke-linejoin:round;stroke-miterlimit:4;stroke-dasharray:none;stroke-dashoffset:0;stroke-opacity:1;color-rendering:auto;image-rendering:auto;shape-rendering:auto;text-rendering:auto;enable-background:accumulate"
     d="m 63.853837,13.381181 c -0.152702,-0.0078 -0.305795,-0.0056 -0.458985,0.0059 -1.470232,0.109797 -2.824239,1.053394 -3.730469,2.49414 a 2.0002,2.0002 0 0 0 -0.07227,0.123047 l -2.97461,5.578125 a 2.0002,2.0002 0 0 0 -0.05664,0.117188 l -2.556641,5.650389 -3.125,6.169922 a 2.0002,2.0002 0 0 0 -0.05664,0.121094 l -1.39648,3.275351 -0.574219,-0.240235 -3.472656,-1.488281 a 2.0002,2.0002 0 0 0 -0.789062,-0.162109 h -0.851563 a 2.0002,2.0002 0 0 0 -0.539062,0.07422 l -0.726563,0.203125 a 2.0002,2.0002 0 0 0 -1.048828,0.710938 l -1.171875,1.53125 a 2.0002,2.0002 0 0 0 -0.0039,0.0039 l -3.398438,4.464844 a 2.0002,2.0002 0 0 0 -0.18164,0.289062 l -3.449219,3.914063 -2.685545,2.597656 -2.95703,1.974609 -3.63477,1.904297 -4.21289,1.558594 -2.66601,0.617188 a 2.0002,2.0002 0 0 0 -1.44532,1.314453 l -0.12109,0.361328 a 2.0002,2.0002 0 0 0 -0.0762,0.960937 l 0.16016,0.966797 a 2.0002,2.0002 0 0 0 0.11718,0.421875 l 0.64844,1.609375 a 2.0002,2.0002 0 0 0 0.0781,0.169922 l 1.375,2.658203 a 2.0002,2.0002 0 0 0 0.12109,0.205078 l 1.33594,1.970703 a 2.0002,2.0002 0 0 0 0.21289,0.261719 l 2.58985,2.697266 a 2.0002,2.0002 0 0 0 0.0332,0.0332 l 1.17187,1.166016 a 2.0002,2.0002 0 0 0 0.7539,0.47071 l 1.05078,0.365234 a 2.0002,2.0002 0 0 0 0.58203,0.109375 l -0.0176,0.214844 a 2.0002,2.0002 0 0 0 0.76367,1.736328 l 1.69922,1.326172 a 2.0002,2.0002 0 0 0 0.23242,0.15625 l 2.30469,1.328125 a 2.0002,2.0002 0 0 0 0.0273,0.01758 c 1.14948,0.637499 2.31756,0.749864 3.386718,0.619141 a 2.0002,2.0002 0 0 0 1.894537,1.365232 h 2.832031 a 2.0002,2.0002 0 0 0 0.316407,-0.02539 l 1.496093,-0.240234 a 2.0002,2.0002 0 0 0 0.191407,-0.04102 2.0002,2.0002 0 0 0 0.599609,0.103516 l 3.078125,0.03906 a 2.0002,2.0002 0 0 0 0.07227,0 c 3.994065,-0.09356 6.706566,-2.469095 8.714843,-4.556641 a 2.0002,2.0002 0 0 0 0.08008,-0.08984 l 2.023437,-2.375 a 2.0002,2.0002 0 0 0 0.144526,-0.189451 l 1.578125,-2.375 a 2.0002,2.0002 0 0 0 0.09375,-0.158203 l 1.171875,-2.171875 a 2.0002,2.0002 0 0 0 0.07617,-0.154297 l 1.863281,-4.306641 a 2.0002,2.0002 0 0 0 0.01953,-0.04687 l 1.414062,-3.501953 a 2.0002,2.0002 0 0 0 0.01953,-0.05273 l 0.203125,-0.548828 h -1.199218 a 2.0002,2.0002 0 0 0 1.941406,-1.523438 l 0.05469,-0.222656 a 2.0002,2.0002 0 0 0 0.0332,-0.154297 l 0.742187,-4.554687 0.609375,-3.679688 a 2.0002,2.0002 0 0 0 0.02148,-0.171875 l 0.06055,-0.787109 a 2.0002,2.0002 0 0 0 -0.234375,-1.103516 l -0.445312,-0.826172 a 2.0002,2.0002 0 0 0 -0.929688,-0.871094 l -2.996094,-1.367187 a 2.0002,2.0002 0 0 0 -0.04297,-0.01758 l -1.152335,-0.494148 1.214844,-2.998047 1.595703,-3.865234 a 2.0002,2.0002 0 0 0 0.01953,-0.04883 l 1.992188,-5.207031 1.535156,-3.675782 a 2.0002,2.0002 0 0 0 0.01172,-0.03125 l 1.314453,-3.298827 a 2.0002,2.0002 0 0 0 0.03711,-0.09961 L 67.193561,18.4886 a 2.0002,2.0002 0 0 0 0.03516,-0.117187 c 0.3376,-1.246667 0.12839,-2.595751 -0.619141,-3.56836 -0.654089,-0.851032 -1.686951,-1.367501 -2.755859,-1.421875 z m -0.310547,2 c 1.202155,-0.08978 2.159937,0.974137 1.755859,2.466797 l -1.080078,3.197266 -1.314453,3.298827 -1.546875,3.705078 -2.001953,5.234375 -1.59961,3.871094 -1.777343,4.384765 -0.142579,0.226563 0.121094,0.05273 1.0625,0.679688 1.738281,0.744141 2.996094,1.367187 0.445313,0.826172 -0.06055,0.787109 -0.609375,3.681641 -0.744141,4.556641 -0.05469,0.222656 h -0.191407 l -0.6875,1.853515 -1.414062,3.501953 -1.863281,4.306641 -1.171875,2.171875 -1.578125,2.375 -2.023438,2.375 c -1.924059,2.000002 -4.071258,3.867241 -7.320312,3.94336 l -3.078125,-0.03906 0.566406,-0.884766 -1.699219,0.847657 -1.496088,0.240235 h -2.832031 c -0.08879,-0.872022 1.355469,-3.347656 1.355469,-3.347656 0,0 -2.685156,3.26645 -5.666014,1.613281 l -2.30469,-1.328125 -1.69922,-1.326172 0.0391,-0.484375 2.83203,-1.931641 -4.77343,0.04297 -1.05079,-0.365234 -1.17187,-1.166016 -2.58984,-2.697265 -1.33594,-1.970704 -1.375,-2.658203 -0.64844,-1.609376 -0.16015,-0.966796 0.12109,-0.361329 2.78906,-0.646484 4.45313,-1.646484 3.84375,-2.013672 3.19531,-2.134766 2.871095,-2.777344 3.722656,-4.224609 0.138672,0.08984 -0.08594,-0.240235 3.398438,-4.464843 1.171875,-1.53125 0.726562,-0.203125 h 0.851563 l 3.480468,1.492187 2.416016,1.011719 2.175781,-5.105469 3.146485,-6.208984 2.574218,-5.691405 2.97461,-5.578126 c 0.655174,-1.041615 1.464253,-1.510586 2.185547,-1.564453 z"
     id="path4337" />
  <path
     style="color:#000000;font-style:normal;font-variant:normal;font-weight:normal;font-stretch:normal;font-size:medium;line-height:normal;font-family:sans-serif;text-indent:0;text-align:start;text-decoration:none;text-decoration-line:none;text-decoration-style:solid;text-decoration-color:#000000;letter-spacing:normal;word-spacing:normal;text-transform:none;writing-mode:lr-tb;direction:ltr;baseline-shift:baseline;text-anchor:start;white-space:normal;clip-rule:nonzero;display:inline;overflow:visible;visibility:visible;opacity:0.15;isolation:auto;mix-blend-mode:normal;color-interpolation:sRGB;color-interpolation-filters:linearRGB;solid-color:#000000;solid-opacity:1;fill:#000000;fill-opacity:1;fill-rule:nonzero;stroke:none;stroke-width:2;stroke-linecap:butt;stroke-linejoin:miter;stroke-miterlimit:4;stroke-dasharray:none;stroke-dashoffset:0;stroke-opacity:1;color-rendering:auto;image-rendering:auto;shape-rendering:auto;text-rendering:auto;enable-background:accumulate"
     d="m 63.469071,14.383134 c -1.095757,0.08184 -2.17633,0.788115 -2.957031,2.029297 l -0.01953,0.03125 -3.007812,5.638672 -2.578125,5.701171 -3.150391,6.21875 -1.800781,4.220703 -1.494141,-0.625 -3.666015,-1.572265 h -1.19336 l -1.18164,0.330078 -1.375,1.796875 -3.728516,4.898437 0.0078,0.01953 -3.382813,3.837891 -2.777344,2.6875 -3.07617,2.054688 -3.73828,1.958984 -4.33399,1.603516 -3.27148,0.757812 -0.37891,1.126953 0.21875,1.320313 0.70703,1.755859 1.42383,2.751953 1.41797,2.089844 2.65625,2.767578 1.3418,1.333985 1.42969,0.498046 1.65234,-0.01563 -0.50586,0.345703 -0.12109,1.498047 2.17968,1.701172 2.37305,1.367188 0.008,0.0039 c 1.43295,0.794707 2.792045,0.567294 3.939453,0.136719 -0.06978,0.255999 -0.17283,0.48886 -0.138671,0.824218 l 0.08987,0.89845 h 3.816407 l 1.359374,-0.21875 4.273438,0.05469 h 0.01758 c 3.621561,-0.08484 6.051409,-2.206226 8.017578,-4.25 l 0.02148,-0.02148 2.082031,-2.443359 1.634766,-2.462891 1.214843,-2.25 1.884766,-4.357422 1.423828,-3.527343 0.451172,-1.214844 h 0.279297 l 0.251953,-1.023438 0.75,-4.59375 0.617187,-3.722656 0.08594,-1.125 -0.744141,-1.378906 -3.3125,-1.511719 -1.673828,-0.716797 -0.365234,-0.234375 1.558593,-3.84375 1.603516,-3.880859 2,-5.232422 1.544922,-3.699219 1.328125,-3.330077 1.097656,-3.251953 0.0078,-0.0293 c 0.26977,-0.996532 0.0961,-1.990292 -0.447266,-2.697266 -0.543113,-0.707007 -1.434358,-1.097502 -2.347656,-1.029297 z m 0.07422,0.998047 c 1.202155,-0.08978 2.159937,0.974137 1.755859,2.466797 l -1.080078,3.197266 -1.314453,3.298827 -1.546875,3.705078 -2.001953,5.234375 -1.59961,3.871094 -1.777343,4.384765 -0.142579,0.226563 0.121094,0.05273 1.0625,0.679688 1.738281,0.744141 2.996094,1.367187 0.445313,0.826172 -0.06055,0.787109 -0.609375,3.681641 -0.744141,4.556641 -0.05469,0.222656 h -0.191407 l -0.6875,1.853515 -1.414062,3.501953 -1.863281,4.306641 -1.171875,2.171875 -1.578125,2.375 -2.023438,2.375 c -1.924059,2.000002 -4.071258,3.867239 -7.320312,3.94336 l -3.078125,-0.03906 0.566406,-0.884766 -1.699219,0.847657 -1.496089,0.240235 h -2.832031 c -0.08879,-0.872022 1.355469,-3.347656 1.355469,-3.347656 0,0 -2.685156,3.26645 -5.666014,1.613281 l -2.30469,-1.328125 -1.69922,-1.326172 0.0391,-0.484375 2.83203,-1.931641 -4.77343,0.04297 -1.05079,-0.365234 -1.17187,-1.166016 -2.58984,-2.697265 -1.33594,-1.970704 -1.375,-2.658203 -0.64844,-1.609376 -0.16015,-0.966796 0.12109,-0.361329 2.78906,-0.646484 4.45313,-1.646484 3.84375,-2.013672 3.19531,-2.134766 2.871095,-2.777344 3.722656,-4.224609 0.138672,0.08984 -0.08594,-0.240235 3.398438,-4.464843 1.171875,-1.53125 0.726562,-0.203125 h 0.851563 l 3.480468,1.492187 2.416016,1.011719 2.175781,-5.105469 3.146485,-6.208984 2.574218,-5.691405 2.97461,-5.578126 c 0.655174,-1.041615 1.464253,-1.510583 2.185547,-1.564453 z"
     id="path4356" />
  <path
     id="path4343"
     d="m 63.543185,16.381182 c -0.721294,0.05387 -1.530373,0.522838 -2.185547,1.564453 L 58.383028,23.52376 55.80881,29.215166 52.662325,35.42415 50.486544,40.529619 48.070528,39.5179 44.59006,38.025713 h -0.851563 l -0.726562,0.203125 -1.171875,1.53125 -3.398438,4.464843 0.08594,0.240235 -0.138674,-0.08984 -3.722656,4.224609 -2.87109,2.777344 -3.19532,2.134766 -3.84375,2.013672 -4.45312,1.646484 -2.78906,0.646484 -0.1211,0.361329 0.16016,0.966796 0.64844,1.609375 1.375,2.658203 1.33593,1.970704 2.58985,2.697265 1.17187,1.166016 1.05078,0.365234 4.77344,-0.04297 -2.83203,1.931641 -0.0391,0.484375 1.69922,1.326172 2.30469,1.328125 c 2.980856,1.653169 5.666012,-1.613281 5.666012,-1.613281 0,0 -1.444263,2.475634 -1.355469,3.347656 h 2.832031 l 1.496094,-0.240234 1.699219,-0.847657 -0.566406,0.884766 3.078125,0.03906 c 3.249054,-0.07612 5.396253,-1.943358 7.320312,-3.94336 l 2.023438,-2.375 1.578125,-2.375 1.171875,-2.171875 1.863281,-4.306641 1.414062,-3.501953 0.6875,-1.853515 h 0.191407 l 0.05469,-0.222656 0.744141,-4.556641 0.609375,-3.681641 0.06055,-0.787109 -0.445313,-0.826172 -2.996094,-1.367187 -1.738281,-0.744141 -1.0625,-0.679688 -0.121094,-0.05273 0.142579,-0.226563 1.777343,-4.384765 1.59961,-3.871094 2.001953,-5.234375 1.546875,-3.705078 1.314453,-3.298827 1.080078,-3.197266 c 0.404078,-1.49266 -0.553704,-2.556574 -1.755859,-2.466797 z"
     style="opacity:0.3;fill:#000000;fill-opacity:1;stroke:none;stroke-width:0.13478px;stroke-opacity:0.88889005" />
  <path
     style="fill:url(#linearGradient4257);stroke:none;stroke-width:0.13478px;stroke-opacity:0.88889005"
     d="m 38.389143,43.375033 -3.722768,4.224262 -2.870983,2.778891 -3.19527,2.133639 -3.84383,2.013193 -4.45348,1.647548 -2.78884,0.645255 -0.12107,0.361341 0.15999,0.96788 0.64856,1.608833 1.37496,2.658445 1.33605,1.970174 2.58994,2.697163 1.17174,1.165758 1.05068,0.365643 4.77344,-0.04301 -2.83207,1.931459 -0.0389,0.486091 1.69924,1.324922 2.30457,1.329221 c 2.980863,1.653169 5.665195,-1.61418 5.665195,-1.61418 0,0 -1.443188,2.475741 -1.354394,3.347764 h 2.832071 l 1.496024,-0.240895 1.699244,-0.847434 -0.566415,0.886149 3.078525,0.03872 c 3.249054,-0.07612 5.396086,-1.94465 7.320146,-3.944652 l 2.023523,-2.374534 1.578178,-2.374534 1.171742,-2.172354 1.863546,-4.305993 1.413871,-3.501578 0.851784,-2.297102 -7.484445,-1.247497 -0.246455,0.27961 0.142677,-0.27961 -6.230554,-4.267278 -3.238505,-2.013191 -2.953135,-1.849728 z"
     id="path4425" />
  <path
     style="fill:url(#linearGradient4263);fill-opacity:1"
     d="m 61.357016,16.945438 -2.974755,5.579295 -2.572643,5.691137 -3.147705,6.207342 -2.174858,5.106108 -2.416988,-1.010897 -3.480637,-1.492688 h -0.851781 l -0.726394,0.202186 -1.171742,1.531403 -3.398484,4.465155 0.159989,0.443074 0.363198,0.524808 2.507786,1.488385 3.156353,1.93146 c 3.80682,2.307345 6.019174,5.323059 10.126908,6.480527 l 5.114358,0.591651 h 0.860431 l 0.05621,-0.223689 0.743688,-4.555491 0.609652,-3.682248 0.06052,-0.78721 -0.445347,-0.825925 -2.996374,-1.367938 -1.738156,-0.744194 -1.063648,-0.679665 -0.121071,-0.05163 0.142678,-0.227989 1.777071,-4.383425 1.599795,-3.871521 2.001906,-5.235159 1.547911,-3.703757 1.314426,-3.299397 1.079679,-3.197314 c 0.646525,-2.388256 -2.194846,-3.680039 -3.941978,-0.902398 z"
     id="path4429" />
  <g
     style="opacity:0.3;fill:#0000ff;fill-opacity:1"
     id="g4350"
     transform="matrix(2.2137709,0,0,2.2024662,-9.0170879,-7.5232359)" />
  <path
     id="path4240"
     d="m 63.54329,15.381181 c -0.721294,0.05387 -1.530373,0.522838 -2.185547,1.564453 l -2.97461,5.578126 -2.574218,5.691405 -3.146485,6.208984 -2.175781,5.105469 -2.416016,-1.011719 -3.480468,-1.492187 h -0.851563 l -0.726562,0.203125 -1.171875,1.53125 -3.398438,4.464843 0.160156,0.44336 0.363282,0.523437 2.507812,1.488282 3.15625,1.93164 c 3.80682,2.307345 6.019219,5.323001 10.126953,6.480469 l 5.113281,0.591797 h 0.861329 l 0.05469,-0.222656 0.744141,-4.556641 0.609375,-3.681641 0.06055,-0.787109 -0.445313,-0.826172 -2.996094,-1.367187 -1.738281,-0.744141 -1.0625,-0.679688 -0.121094,-0.05273 0.142579,-0.228516 1.777343,-4.382812 1.59961,-3.871094 2.001953,-5.234375 1.546875,-3.705078 1.314453,-3.298827 1.080078,-3.197266 c 0.404078,-1.49266 -0.553704,-2.556574 -1.755859,-2.466797 z m 0.06055,0.992188 c 0.121487,-0.0073 0.228354,0.0093 0.314453,0.03711 0.343871,0.111231 0.626639,0.38272 0.416015,1.169922 l -1.054687,3.119141 -1.300781,3.267577 -1.544922,3.695312 a 1.0001,1.0001 0 0 0 -0.01172,0.0293 l -1.996094,5.222656 -1.595703,3.859376 a 1.0001,1.0001 0 0 0 -0.002,0.0059 l -1.744141,4.302734 -0.0957,0.154297 a 1.0001,1.0001 0 0 0 0.455078,1.449219 l 0.04492,0.01953 0.994141,0.634766 a 1.0001,1.0001 0 0 0 0.144531,0.07617 l 1.726563,0.740234 2.679687,1.222656 0.146484,0.273438 -0.0332,0.449218 -0.603515,3.640626 a 1.0001,1.0001 0 0 0 0,0.002 L 59.90067,53.680098 54.982702,53.113691 C 51.251934,52.043432 49.120991,49.168017 45.15067,46.760176 l -0.0039,-0.0039 -3.152344,-1.927734 a 1.0001,1.0001 0 0 0 -0.01172,-0.0078 l -2.320313,-1.376953 -0.0625,-0.08984 3.035157,-3.988282 0.966796,-1.263672 0.271485,-0.07617 h 0.509765 l 3.292969,1.412109 a 1.0001,1.0001 0 0 0 0.0078,0.0039 l 2.417968,1.009766 a 1.0001,1.0001 0 0 0 1.304688,-0.53125 l 2.162109,-5.074219 3.132813,-6.177734 a 1.0001,1.0001 0 0 0 0.01953,-0.04102 l 2.558594,-5.660155 2.927734,-5.492188 c 0.528545,-0.837366 1.032023,-1.079527 1.396485,-1.101562 z"
     style="color:#000000;font-style:normal;font-variant:normal;font-weight:normal;font-stretch:normal;font-size:medium;line-height:normal;font-family:sans-serif;text-indent:0;text-align:start;text-decoration:none;text-decoration-line:none;text-decoration-style:solid;text-decoration-color:#000000;letter-spacing:normal;word-spacing:normal;text-transform:none;writing-mode:lr-tb;direction:ltr;baseline-shift:baseline;text-anchor:start;white-space:normal;clip-rule:nonzero;display:inline;overflow:visible;visibility:visible;opacity:0.2;isolation:auto;mix-blend-mode:normal;color-interpolation:sRGB;color-interpolation-filters:linearRGB;solid-color:#000000;solid-opacity:1;fill:url(#linearGradient4251);fill-opacity:1;fill-rule:nonzero;stroke:none;stroke-width:2;stroke-linecap:round;stroke-linejoin:round;stroke-miterlimit:4;stroke-dasharray:none;stroke-dashoffset:0;stroke-opacity:1;color-rendering:auto;image-rendering:auto;shape-rendering:auto;text-rendering:auto;enable-background:accumulate" />
  <path
     id="path4191"
     d="m 58.758133,43.242509 c 0,0 -3.572352,7.165578 -3.972656,10.613281 -4.760825,10.646836 -12.816406,20.43164 -12.816406,20.43164 l -0.566406,0.884766 3.078125,0.03906 c 3.249054,-0.07612 5.396252,-1.943358 7.320312,-3.94336 l 2.023438,-2.375 1.578125,-2.375 1.171875,-2.171875 1.863281,-4.306641 1.414062,-3.501953 0.6875,-1.853515 h 0.191407 l 0.05469,-0.222656 0.744141,-4.556641 0.609375,-3.681641 0.06055,-0.787109 -0.445313,-0.826172 z"
     style="opacity:0.15;fill:url(#linearGradient4199);fill-opacity:1" />
  <path
     id="path4204"
     d="m 58.758133,43.242509 c 0,0 -3.572352,7.165578 -3.972656,10.613281 -4.760825,10.646836 -12.816406,20.43164 -12.816406,20.43164 l -0.566406,0.884766 3.078125,0.03906 c 0.04145,-9.72e-4 0.07805,-0.01017 0.11914,-0.01172 l -2.207031,-0.02734 0.566406,-0.884766 c 0,0 8.055582,-9.784804 12.816406,-20.43164 0.36869,-3.175418 3.313971,-9.262281 3.794922,-10.242188 z"
     style="opacity:0.05;fill:#000000;fill-opacity:1" />
</svg>
