<?xml version="1.0" encoding="UTF-8" standalone="no"?>
<svg
   xmlns:dc="http://purl.org/dc/elements/1.1/"
   xmlns:cc="http://creativecommons.org/ns#"
   xmlns:rdf="http://www.w3.org/1999/02/22-rdf-syntax-ns#"
   xmlns:svg="http://www.w3.org/2000/svg"
   xmlns="http://www.w3.org/2000/svg"
   xmlns:xlink="http://www.w3.org/1999/xlink"
   xmlns:sodipodi="http://sodipodi.sourceforge.net/DTD/sodipodi-0.dtd"
   xmlns:inkscape="http://www.inkscape.org/namespaces/inkscape"
   width="16px"
   height="16px"
   viewBox="0 0 16 16"
   version="1.1"
   id="svg87"
   sodipodi:docname="ucaresystem-symbolic.svg"
   inkscape:version="0.92.3 (2405546, 2018-03-11)">
  <metadata
     id="metadata91">
    <rdf:RDF>
      <cc:Work
         rdf:about="">
        <dc:format>image/svg+xml</dc:format>
        <dc:type
           rdf:resource="http://purl.org/dc/dcmitype/StillImage" />
      </cc:Work>
    </rdf:RDF>
  </metadata>
  <sodipodi:namedview
     pagecolor="#ffffff"
     bordercolor="#666666"
     borderopacity="1"
     objecttolerance="10"
     gridtolerance="10"
     guidetolerance="10"
     inkscape:pageopacity="0"
     inkscape:pageshadow="2"
     inkscape:window-width="1466"
     inkscape:window-height="907"
     id="namedview89"
     showgrid="false"
     inkscape:zoom="14.75"
     inkscape:cx="8"
     inkscape:cy="8"
     inkscape:window-x="0"
     inkscape:window-y="0"
     inkscape:window-maximized="0"
     inkscape:current-layer="svg87" />
  <defs
     id="defs70">
    <filter
       id="alpha"
       filterUnits="objectBoundingBox"
       x="0%"
       y="0%"
       width="100%"
       height="100%">
      <feColorMatrix
         type="matrix"
         in="SourceGraphic"
         values="0 0 0 0 1 0 0 0 0 1 0 0 0 0 1 0 0 0 1 0"
         id="feColorMatrix2" />
    </filter>
    <mask
       id="mask0">
      <g
         filter="url(#alpha)"
         id="g7">
        <rect
           x="0"
           y="0"
           width="16"
           height="16"
           style="fill:rgb(0%,0%,0%);fill-opacity:0.501961;stroke:none;"
           id="rect5" />
      </g>
    </mask>
    <linearGradient
       id="linear0"
       gradientUnits="userSpaceOnUse"
       x1="46.810825"
       y1="74.620186"
       x2="79.899368"
       y2="51.804909"
       gradientTransform="matrix(0.166667,0,0,0.166667,-1.101183,-0.437446)">
      <stop
         offset="0"
         style="stop-color:rgb(0%,0%,0%);stop-opacity:1;"
         id="stop10" />
      <stop
         offset="1"
         style="stop-color:rgb(0%,0%,0%);stop-opacity:0;"
         id="stop12" />
    </linearGradient>
    <clipPath
       id="clip1">
      <rect
         x="0"
         y="0"
         width="16"
         height="16"
         id="rect15" />
    </clipPath>
    <g
       id="surface5"
       clip-path="url(#clip1)">
      <path
         style=" stroke:none;fill-rule:nonzero;fill:url(#linear0);"
         d="M 13.597656 6.921875 C 13.617188 7.167969 13.074219 6.421875 13.074219 6.421875 L 11.519531 8.027344 L 10.019531 7.316406 L 9.824219 9.113281 L 9.804688 9.140625 L 9.804688 9.128906 L 9.226562 9.421875 L 8.824219 9.601562 L 8.464844 9.699219 L 8.089844 9.757812 L 7.71875 9.753906 L 7.523438 9.714844 L 7.484375 9.746094 L 7.398438 9.855469 L 7.277344 10.046875 L 7.089844 10.378906 L 6.964844 10.636719 L 6.832031 11.015625 L 6.777344 11.183594 L 6.792969 11.261719 L 7.027344 11.445312 L 6.707031 11.535156 L 6.660156 11.585938 L 6.613281 11.789062 L 6.597656 12.015625 C 6.582031 12.304688 7.023438 12.070312 7.023438 12.070312 C 7.023438 12.070312 7.027344 12.042969 6.949219 12.140625 L 6.917969 12.105469 L 7.136719 12.054688 L 7.195312 12.21875 L 7.023438 12.105469 L 7.289062 12.144531 C 7.453125 12.265625 7.363281 12.566406 7.644531 12.433594 L 7.886719 12.324219 L 8.414062 12.203125 L 8.679688 12.019531 L 9.179688 11.644531 L 9.582031 11.335938 L 9.789062 11.167969 L 9.800781 11.175781 L 9.824219 11.15625 C 10.765625 10.535156 12.195312 9.949219 12.898438 9.203125 C 13 9.09375 12.257812 8.519531 12.367188 8.425781 L 13.636719 7.273438 Z M 13.597656 6.921875 "
         id="path18" />
    </g>
    <mask
       id="mask1">
      <g
         filter="url(#alpha)"
         id="g23">
        <rect
           x="0"
           y="0"
           width="16"
           height="16"
           style="fill:rgb(0%,0%,0%);fill-opacity:0.101961;stroke:none;"
           id="rect21" />
      </g>
    </mask>
    <clipPath
       id="clip2">
      <rect
         x="0"
         y="0"
         width="16"
         height="16"
         id="rect26" />
    </clipPath>
    <g
       id="surface8"
       clip-path="url(#clip2)">
      <path
         style=" stroke:none;fill-rule:nonzero;fill:rgb(0%,0%,0%);fill-opacity:1;"
         d="M 10.640625 2.230469 C 10.617188 2.230469 10.589844 2.230469 10.566406 2.230469 C 10.320312 2.25 10.09375 2.40625 9.945312 2.648438 C 9.941406 2.652344 9.9375 2.660156 9.933594 2.667969 L 9.4375 3.597656 C 9.433594 3.601562 9.429688 3.609375 9.425781 3.617188 L 9 4.558594 L 8.480469 5.585938 C 8.476562 5.59375 8.472656 5.601562 8.46875 5.605469 L 8.238281 6.152344 L 8.140625 6.113281 L 7.5625 5.863281 C 7.523438 5.847656 7.476562 5.835938 7.433594 5.835938 L 7.289062 5.835938 C 7.257812 5.835938 7.230469 5.839844 7.199219 5.851562 L 7.078125 5.882812 C 7.007812 5.902344 6.949219 5.945312 6.902344 6.003906 L 6.707031 6.257812 L 6.140625 7.003906 C 6.128906 7.015625 6.121094 7.035156 6.113281 7.050781 L 5.535156 7.703125 L 5.089844 8.136719 L 4.597656 8.464844 L 3.992188 8.78125 L 3.289062 9.042969 L 2.84375 9.144531 C 2.730469 9.171875 2.640625 9.253906 2.601562 9.363281 L 2.582031 9.425781 C 2.566406 9.476562 2.5625 9.53125 2.570312 9.585938 L 2.597656 9.746094 C 2.601562 9.769531 2.605469 9.792969 2.617188 9.816406 L 2.722656 10.085938 C 2.726562 10.09375 2.734375 10.101562 2.738281 10.113281 L 2.964844 10.554688 C 2.972656 10.566406 2.980469 10.578125 2.988281 10.589844 L 3.210938 10.917969 C 3.21875 10.933594 3.230469 10.949219 3.246094 10.960938 L 3.675781 11.410156 C 3.679688 11.414062 3.679688 11.414062 3.683594 11.417969 L 3.878906 11.609375 C 3.914062 11.644531 3.957031 11.671875 4.003906 11.691406 L 4.179688 11.75 C 4.210938 11.761719 4.242188 11.765625 4.273438 11.769531 L 4.273438 11.804688 C 4.261719 11.917969 4.3125 12.023438 4.398438 12.09375 L 4.683594 12.316406 C 4.695312 12.324219 4.707031 12.332031 4.722656 12.339844 L 5.105469 12.5625 C 5.105469 12.5625 5.109375 12.5625 5.109375 12.566406 C 5.300781 12.671875 5.496094 12.691406 5.675781 12.667969 C 5.71875 12.804688 5.847656 12.894531 5.992188 12.894531 L 6.460938 12.894531 C 6.480469 12.894531 6.496094 12.894531 6.515625 12.890625 L 6.765625 12.851562 C 6.773438 12.851562 6.785156 12.847656 6.796875 12.84375 C 6.828125 12.855469 6.863281 12.863281 6.894531 12.863281 L 7.410156 12.867188 C 7.414062 12.867188 7.417969 12.867188 7.421875 12.867188 C 8.085938 12.851562 8.539062 12.457031 8.875 12.109375 C 8.878906 12.105469 8.882812 12.097656 8.886719 12.09375 L 9.222656 11.699219 C 9.234375 11.6875 9.242188 11.675781 9.25 11.667969 L 9.511719 11.269531 C 9.515625 11.261719 9.523438 11.253906 9.527344 11.246094 L 9.722656 10.882812 C 9.726562 10.875 9.730469 10.867188 9.734375 10.855469 L 10.046875 10.140625 C 10.046875 10.136719 10.046875 10.132812 10.050781 10.132812 L 10.285156 9.546875 C 10.285156 9.542969 10.285156 9.542969 10.289062 9.539062 L 10.320312 9.449219 L 10.121094 9.449219 C 10.273438 9.445312 10.410156 9.34375 10.445312 9.195312 L 10.453125 9.15625 C 10.457031 9.148438 10.457031 9.140625 10.460938 9.128906 L 10.582031 8.371094 L 10.683594 7.757812 C 10.6875 7.75 10.6875 7.738281 10.6875 7.730469 L 10.699219 7.597656 C 10.703125 7.535156 10.691406 7.472656 10.660156 7.414062 L 10.585938 7.277344 C 10.550781 7.210938 10.496094 7.160156 10.429688 7.132812 L 9.929688 6.902344 C 9.929688 6.902344 9.925781 6.902344 9.925781 6.902344 L 9.730469 6.820312 L 9.933594 6.320312 L 10.199219 5.675781 C 10.203125 5.671875 10.203125 5.667969 10.203125 5.667969 L 10.535156 4.796875 L 10.792969 4.1875 C 10.792969 4.183594 10.792969 4.183594 10.792969 4.179688 L 11.011719 3.632812 C 11.015625 3.625 11.015625 3.621094 11.019531 3.613281 L 11.199219 3.082031 C 11.199219 3.074219 11.203125 3.070312 11.203125 3.0625 C 11.261719 2.855469 11.226562 2.628906 11.101562 2.46875 C 10.992188 2.324219 10.820312 2.238281 10.640625 2.230469 Z M 10.589844 2.5625 C 10.789062 2.546875 10.949219 2.726562 10.882812 2.976562 L 10.703125 3.507812 L 10.484375 4.058594 L 10.226562 4.675781 L 9.894531 5.546875 L 9.625 6.191406 L 9.328125 6.921875 L 9.304688 6.960938 L 9.328125 6.96875 L 9.503906 7.082031 L 9.792969 7.207031 L 10.292969 7.433594 L 10.367188 7.574219 L 10.355469 7.703125 L 10.253906 8.316406 L 10.132812 9.078125 L 10.121094 9.113281 L 10.089844 9.113281 L 9.976562 9.421875 L 9.738281 10.007812 L 9.429688 10.722656 L 9.234375 11.085938 L 8.972656 11.480469 L 8.632812 11.878906 C 8.3125 12.210938 7.953125 12.523438 7.414062 12.535156 L 6.902344 12.527344 L 6.996094 12.382812 L 6.710938 12.523438 L 6.460938 12.5625 L 5.992188 12.5625 C 5.976562 12.417969 6.214844 12.003906 6.214844 12.003906 C 6.214844 12.003906 5.769531 12.550781 5.273438 12.273438 L 4.886719 12.050781 L 4.605469 11.832031 L 4.609375 11.75 L 5.082031 11.429688 L 4.289062 11.4375 L 4.113281 11.375 L 3.917969 11.179688 L 3.484375 10.730469 L 3.261719 10.402344 L 3.035156 9.960938 L 2.925781 9.691406 L 2.898438 9.53125 L 2.917969 9.46875 L 3.382812 9.363281 L 4.125 9.085938 L 4.765625 8.753906 L 5.300781 8.394531 L 5.777344 7.933594 L 6.398438 7.230469 L 6.421875 7.246094 L 6.40625 7.203125 L 6.972656 6.460938 L 7.167969 6.203125 L 7.289062 6.171875 L 7.433594 6.171875 L 8.011719 6.417969 L 8.414062 6.589844 L 8.777344 5.738281 L 9.300781 4.703125 L 9.730469 3.753906 L 10.226562 2.824219 C 10.335938 2.652344 10.46875 2.574219 10.589844 2.5625 Z M 10.589844 2.5625 "
         id="path29" />
    </g>
    <mask
       id="mask2">
      <g
         filter="url(#alpha)"
         id="g34">
        <rect
           x="0"
           y="0"
           width="16"
           height="16"
           style="fill:rgb(0%,0%,0%);fill-opacity:0.14902;stroke:none;"
           id="rect32" />
      </g>
    </mask>
    <clipPath
       id="clip3">
      <rect
         x="0"
         y="0"
         width="16"
         height="16"
         id="rect37" />
    </clipPath>
    <g
       id="surface11"
       clip-path="url(#clip3)">
      <path
         style=" stroke:none;fill-rule:nonzero;fill:rgb(0%,0%,0%);fill-opacity:1;"
         d="M 10.578125 2.398438 C 10.394531 2.410156 10.214844 2.527344 10.085938 2.734375 L 10.082031 2.742188 L 9.582031 3.679688 L 9.152344 4.628906 L 8.625 5.667969 L 8.324219 6.371094 L 8.078125 6.265625 L 7.464844 6.003906 L 7.265625 6.003906 L 7.070312 6.058594 L 6.839844 6.359375 L 6.21875 7.175781 L 6.222656 7.179688 L 5.65625 7.816406 L 5.195312 8.265625 L 4.679688 8.609375 L 4.058594 8.933594 L 3.335938 9.203125 L 2.789062 9.328125 L 2.726562 9.515625 L 2.765625 9.738281 L 2.882812 10.027344 L 3.121094 10.488281 L 3.355469 10.835938 L 3.796875 11.296875 L 4.023438 11.519531 L 4.261719 11.601562 L 4.535156 11.601562 L 4.453125 11.65625 L 4.429688 11.90625 L 4.792969 12.191406 L 5.191406 12.417969 C 5.429688 12.550781 5.65625 12.515625 5.847656 12.441406 C 5.835938 12.484375 5.820312 12.523438 5.824219 12.578125 L 5.839844 12.730469 L 6.476562 12.730469 L 6.703125 12.691406 L 7.414062 12.703125 L 7.417969 12.703125 C 8.019531 12.6875 8.425781 12.335938 8.753906 11.992188 L 8.757812 11.988281 L 9.105469 11.582031 L 9.375 11.171875 L 9.578125 10.796875 L 9.894531 10.070312 L 10.128906 9.484375 L 10.207031 9.28125 L 10.253906 9.28125 L 10.292969 9.109375 L 10.417969 8.34375 L 10.523438 7.722656 L 10.535156 7.535156 L 10.414062 7.308594 L 9.859375 7.054688 L 9.582031 6.933594 L 9.519531 6.894531 L 9.78125 6.253906 L 10.046875 5.609375 L 10.382812 4.738281 L 10.636719 4.121094 L 10.859375 3.566406 L 11.042969 3.023438 L 11.042969 3.019531 C 11.089844 2.851562 11.058594 2.6875 10.96875 2.570312 C 10.878906 2.449219 10.730469 2.386719 10.578125 2.398438 Z M 10.589844 2.5625 C 10.789062 2.546875 10.949219 2.726562 10.882812 2.976562 L 10.703125 3.507812 L 10.484375 4.058594 L 10.226562 4.675781 L 9.894531 5.546875 L 9.625 6.191406 L 9.328125 6.921875 L 9.304688 6.960938 L 9.328125 6.96875 L 9.503906 7.082031 L 9.792969 7.207031 L 10.292969 7.433594 L 10.367188 7.574219 L 10.355469 7.703125 L 10.253906 8.316406 L 10.132812 9.078125 L 10.121094 9.113281 L 10.089844 9.113281 L 9.976562 9.421875 L 9.738281 10.007812 L 9.429688 10.722656 L 9.234375 11.085938 L 8.972656 11.480469 L 8.632812 11.878906 C 8.3125 12.210938 7.953125 12.523438 7.414062 12.535156 L 6.902344 12.527344 L 6.996094 12.382812 L 6.710938 12.523438 L 6.460938 12.5625 L 5.992188 12.5625 C 5.976562 12.417969 6.214844 12.003906 6.214844 12.003906 C 6.214844 12.003906 5.769531 12.550781 5.273438 12.273438 L 4.886719 12.050781 L 4.605469 11.832031 L 4.609375 11.75 L 5.082031 11.429688 L 4.289062 11.4375 L 4.113281 11.375 L 3.917969 11.179688 L 3.484375 10.730469 L 3.261719 10.402344 L 3.035156 9.960938 L 2.925781 9.691406 L 2.898438 9.53125 L 2.917969 9.46875 L 3.382812 9.363281 L 4.125 9.085938 L 4.765625 8.753906 L 5.300781 8.394531 L 5.777344 7.933594 L 6.398438 7.230469 L 6.421875 7.246094 L 6.40625 7.203125 L 6.972656 6.460938 L 7.167969 6.203125 L 7.289062 6.171875 L 7.433594 6.171875 L 8.011719 6.417969 L 8.414062 6.589844 L 8.777344 5.738281 L 9.300781 4.703125 L 9.730469 3.753906 L 10.226562 2.824219 C 10.335938 2.652344 10.46875 2.574219 10.589844 2.5625 Z M 10.589844 2.5625 "
         id="path40" />
    </g>
    <mask
       id="mask3">
      <g
         filter="url(#alpha)"
         id="g45">
        <rect
           x="0"
           y="0"
           width="16"
           height="16"
           style="fill:rgb(0%,0%,0%);fill-opacity:0.301961;stroke:none;"
           id="rect43" />
      </g>
    </mask>
    <clipPath
       id="clip4">
      <rect
         x="0"
         y="0"
         width="16"
         height="16"
         id="rect48" />
    </clipPath>
    <g
       id="surface14"
       clip-path="url(#clip4)">
      <path
         style=" stroke:none;fill-rule:nonzero;fill:rgb(0%,0%,0%);fill-opacity:1;"
         d="M 10.589844 2.730469 C 10.46875 2.738281 10.335938 2.816406 10.226562 2.992188 L 9.730469 3.921875 L 9.300781 4.871094 L 8.777344 5.902344 L 8.414062 6.753906 L 8.011719 6.585938 L 7.433594 6.335938 L 7.289062 6.335938 L 7.167969 6.371094 L 6.972656 6.625 L 6.40625 7.371094 L 6.421875 7.410156 L 6.398438 7.394531 L 5.777344 8.101562 L 5.300781 8.5625 L 4.765625 8.917969 L 4.125 9.253906 L 3.382812 9.527344 L 2.917969 9.636719 L 2.898438 9.695312 L 2.925781 9.859375 L 3.035156 10.125 L 3.261719 10.570312 L 3.484375 10.898438 L 3.917969 11.347656 L 4.113281 11.542969 L 4.289062 11.601562 L 5.082031 11.59375 L 4.609375 11.917969 L 4.605469 11.996094 L 4.886719 12.21875 L 5.273438 12.441406 C 5.769531 12.714844 6.214844 12.171875 6.214844 12.171875 C 6.214844 12.171875 5.976562 12.582031 5.992188 12.730469 L 6.460938 12.730469 L 6.710938 12.6875 L 6.996094 12.546875 L 6.902344 12.695312 L 7.414062 12.703125 C 7.953125 12.6875 8.3125 12.378906 8.632812 12.042969 L 8.972656 11.648438 L 9.234375 11.253906 L 9.429688 10.890625 L 9.738281 10.171875 L 9.976562 9.589844 L 10.089844 9.28125 L 10.121094 9.28125 L 10.132812 9.242188 L 10.253906 8.484375 L 10.355469 7.871094 L 10.367188 7.738281 L 10.292969 7.601562 L 9.792969 7.375 L 9.503906 7.25 L 9.328125 7.136719 L 9.304688 7.128906 L 9.328125 7.089844 L 9.625 6.359375 L 9.894531 5.714844 L 10.226562 4.839844 L 10.484375 4.222656 L 10.703125 3.675781 L 10.882812 3.140625 C 10.949219 2.890625 10.789062 2.714844 10.589844 2.730469 Z M 10.589844 2.730469 "
         id="path51" />
    </g>
    <linearGradient
       id="linear1"
       gradientUnits="userSpaceOnUse"
       x1="163.86353"
       y1="21.589359"
       x2="106.38776"
       y2="167.39952"
       gradientTransform="matrix(0.0497287,0,0,0.0494747,2.778604,1.17333)">
      <stop
         offset="0"
         style="stop-color:rgb(36.470588%,36.470588%,36.470588%);stop-opacity:1;"
         id="stop54" />
      <stop
         offset="1"
         style="stop-color:rgb(12.941176%,12.941176%,12.941176%);stop-opacity:1;"
         id="stop56" />
    </linearGradient>
    <mask
       id="mask4">
      <g
         filter="url(#alpha)"
         id="g61">
        <rect
           x="0"
           y="0"
           width="16"
           height="16"
           style="fill:rgb(0%,0%,0%);fill-opacity:0.0509804;stroke:none;"
           id="rect59" />
      </g>
    </mask>
    <clipPath
       id="clip5">
      <rect
         x="0"
         y="0"
         width="16"
         height="16"
         id="rect64" />
    </clipPath>
    <g
       id="surface18"
       clip-path="url(#clip5)">
      <path
         style=" stroke:none;fill-rule:nonzero;fill:rgb(0%,0%,0%);fill-opacity:1;"
         d="M 9.792969 7.207031 C 9.792969 7.207031 9.199219 8.402344 9.132812 8.976562 C 8.335938 10.75 6.996094 12.382812 6.996094 12.382812 L 6.902344 12.527344 L 7.414062 12.535156 C 7.421875 12.535156 7.425781 12.535156 7.433594 12.535156 L 7.066406 12.527344 L 7.160156 12.382812 C 7.160156 12.382812 8.503906 10.75 9.296875 8.976562 C 9.355469 8.445312 9.847656 7.433594 9.929688 7.269531 Z M 9.792969 7.207031 "
         id="path67" />
    </g>
  </defs>
  <g
     id="surface1"
     transform="matrix(1.3919476,0,0,1.4386664,-3.2431849,-2.8089404)">
    <use
       xlink:href="#surface5"
       mask="url(#mask0)"
       id="use72"
       x="0"
       y="0"
       width="100%"
       height="100%" />
    <use
       xlink:href="#surface8"
       mask="url(#mask1)"
       id="use74"
       x="0"
       y="0"
       width="100%"
       height="100%" />
    <use
       xlink:href="#surface11"
       mask="url(#mask2)"
       id="use76"
       x="0"
       y="0"
       width="100%"
       height="100%" />
    <use
       xlink:href="#surface14"
       mask="url(#mask3)"
       id="use78"
       x="0"
       y="0"
       width="100%"
       height="100%" />
    <path
       style="fill:#e6e6e6;fill-opacity:1;fill-rule:nonzero;stroke:none"
       d="M 6.398438,7.230469 5.777344,7.933594 5.300781,8.394531 4.765625,8.753906 4.125,9.085938 3.382812,9.363281 2.917969,9.46875 l -0.019531,0.0625 0.027343,0.160156 0.109375,0.269532 0.226563,0.441406 0.222656,0.328125 0.433594,0.449219 0.195312,0.195312 0.175781,0.05859 0.792969,-0.0039 -0.472656,0.320312 -0.00391,0.08203 0.28125,0.21875 0.386719,0.222657 c 0.496093,0.277343 0.941406,-0.269532 0.941406,-0.269532 0,0 -0.238282,0.414063 -0.222656,0.558594 h 0.46875 l 0.25,-0.03906 0.285156,-0.140626 -0.09375,0.144532 0.511718,0.0078 c 0.539063,-0.01172 0.898438,-0.324218 1.21875,-0.65625 L 8.972656,11.480469 9.234375,11.085938 9.429688,10.722656 9.738281,10.007812 9.976562,9.421875 10.117188,9.039062 8.871094,8.832031 8.828125,8.878906 8.851562,8.832031 7.8125,8.121094 7.273438,7.785156 6.78125,7.476562 Z m 0,0"
       id="path80"
       inkscape:connector-curvature="0" />
    <path
       style="fill:url(#linear1);fill-rule:nonzero;stroke:none"
       d="M 10.226562,2.824219 9.730469,3.753906 9.300781,4.703125 8.777344,5.738281 8.414062,6.589844 8.011719,6.417969 7.429688,6.171875 H 7.289062 L 7.167969,6.203125 6.972656,6.460938 6.40625,7.203125 6.433594,7.277344 6.492188,7.367188 6.910156,7.613281 7.4375,7.933594 C 8.074219,8.320312 8.441406,8.824219 9.125,9.015625 l 0.851562,0.097656 h 0.144532 l 0.01172,-0.035156 0.121094,-0.761719 0.101563,-0.613281 0.01172,-0.128906 -0.07422,-0.140625 -0.5,-0.226563 -0.289063,-0.125 L 9.324219,6.96875 9.304688,6.960938 9.328125,6.921875 9.625,6.191406 9.890625,5.546875 10.226562,4.675781 10.484375,4.058594 10.703125,3.507812 10.882812,2.976562 C 10.992188,2.578125 10.515625,2.359375 10.226562,2.824219 Z m 0,0"
       id="path82"
       inkscape:connector-curvature="0" />
    <use
       xlink:href="#surface18"
       mask="url(#mask4)"
       id="use84"
       x="0"
       y="0"
       width="100%"
       height="100%" />
  </g>
</svg>
